<svg width="16" height="16" viewBox="0 0 16 16" fill="none" xmlns="http://www.w3.org/2000/svg">
<circle cx="8" cy="8" r="7" stroke="white" stroke-width="2"/>
<path d="M8.85791 4.08V6.96L8.65391 9.444H7.33391L7.12991 6.96V4.08H8.85791ZM7.99391 10.26C8.30591 10.26 8.55391 10.344 8.73791 10.512C8.92191 10.68 9.01391 10.904 9.01391 11.184C9.01391 11.472 8.92191 11.7 8.73791 11.868C8.55391 12.028 8.30591 12.108 7.99391 12.108C7.68191 12.108 7.43391 12.028 7.24991 11.868C7.06591 11.7 6.97391 11.472 6.97391 11.184C6.97391 10.904 7.06591 10.68 7.24991 10.512C7.43391 10.344 7.68191 10.26 7.99391 10.26Z" fill="white"/>
</svg>
