<svg width="100" height="100" viewBox="0 0 100 100" fill="none" xmlns="http://www.w3.org/2000/svg">
<path d="M65.1319 27.7118L54.6806 43.2291C54.5317 43.4526 54.4688 43.7224 54.5035 43.9887C54.5382 44.2549 54.6681 44.4996 54.8693 44.6775C55.0704 44.8554 55.3292 44.9544 55.5977 44.9562C55.8662 44.958 56.1263 44.8626 56.3299 44.6875L66.6181 35.7639C66.7001 35.6905 66.8079 35.6526 66.9179 35.6584C67.0279 35.6643 67.131 35.7134 67.2049 35.7951C67.2739 35.8739 67.3122 35.975 67.3125 36.0798V64.0173C67.3125 64.1029 67.2861 64.1863 67.237 64.2563C67.1879 64.3264 67.1185 64.3796 67.0381 64.4088C66.9577 64.438 66.8703 64.4418 66.7877 64.4196C66.7051 64.3974 66.6313 64.3503 66.5764 64.2847L35.4792 27.059C34.9787 26.4687 34.3558 25.9944 33.6537 25.6688C32.9516 25.3432 32.1871 25.1742 31.4132 25.1736H30.3264C28.9137 25.1736 27.559 25.7348 26.5601 26.7336C25.5612 27.7325 25 29.0873 25 30.5V69.8472C25 71.2598 25.5612 72.6146 26.5601 73.6135C27.559 74.6124 28.9137 75.1736 30.3264 75.1736C31.2371 75.1735 32.1327 74.9402 32.9277 74.4959C33.7227 74.0515 34.3907 73.411 34.8681 72.6354L45.3194 57.118C45.4683 56.8946 45.5312 56.6247 45.4965 56.3585C45.4618 56.0922 45.3319 55.8475 45.1307 55.6697C44.9295 55.4918 44.6708 55.3928 44.4023 55.391C44.1338 55.3891 43.8737 55.4846 43.6701 55.6597L33.3819 64.5833C33.2999 64.6567 33.1921 64.6946 33.0821 64.6887C32.9721 64.6829 32.869 64.6337 32.7951 64.5521C32.7261 64.4733 32.6878 64.3721 32.6875 64.2673V36.3229C32.6875 36.2374 32.7139 36.1539 32.763 36.0839C32.8121 36.0138 32.8815 35.9606 32.9619 35.9314C33.0423 35.9022 33.1297 35.8985 33.2123 35.9207C33.2949 35.9429 33.3687 35.99 33.4236 36.0555L64.5174 73.2882C65.0179 73.8784 65.6407 74.3528 66.3428 74.6784C67.0449 75.0039 67.8094 75.1729 68.5833 75.1736H69.6701C70.3696 75.174 71.0623 75.0367 71.7087 74.7695C72.3551 74.5022 72.9426 74.1103 73.4375 73.616C73.9324 73.1217 74.3251 72.5348 74.5932 71.8887C74.8613 71.2427 74.9995 70.5501 75 69.8507V30.5C75 29.0873 74.4388 27.7325 73.4399 26.7336C72.441 25.7348 71.0863 25.1736 69.6736 25.1736C68.7629 25.1737 67.8673 25.407 67.0723 25.8513C66.2773 26.2956 65.6093 26.9361 65.1319 27.7118Z" fill="black"/>
<path d="M50.0002 38.5417C56.5002 38.5417 63.0002 38.6667 69.5071 39.0486C74.4134 39.3959 79.3543 39.7084 84.1738 40.9167C85.7328 41.3854 87.5557 41.8403 88.5939 43.3056C89.3196 44.3472 88.9411 45.7951 88.0349 46.5764C86.9516 47.5972 85.6043 48.1354 84.337 48.6597C82.748 49.2479 81.1246 49.7383 79.4759 50.1285C63.3543 53.7153 46.6634 53.8611 30.3161 51.9167C27.0244 51.4998 23.7571 50.9087 20.528 50.1458C18.0384 49.5069 15.5245 48.8403 13.2155 47.5347C11.7675 46.7604 10.2641 45.0313 11.396 43.3125C12.4377 41.8438 14.2641 41.3889 15.8266 40.9202C20.6495 39.7153 25.587 39.3959 30.4967 39.059C37.0002 38.6632 43.5002 38.5417 50.0002 38.5417ZM50.0002 38.5417C40.278 38.5938 30.4828 39.2639 21.021 41.5C18.7502 42.0833 16.4307 42.7083 14.4411 43.8507C14.0952 44.0254 13.7999 44.2861 13.5835 44.6077C13.5835 44.6458 13.6113 44.6077 13.6217 44.5278C13.6217 44.3264 13.6217 44.4271 13.8057 44.5486C15.9724 45.8333 18.705 46.1042 21.2224 46.5278C30.7328 47.75 40.396 47.8576 50.0002 47.9167C59.6043 47.8681 69.271 47.7778 78.7814 46.5486C81.3023 46.125 84.028 45.8542 86.205 44.5625C86.2953 44.4965 86.3474 44.441 86.3717 44.4271C86.396 44.4132 86.3717 44.4583 86.3925 44.5313C86.4134 44.6042 86.4412 44.6424 86.4307 44.6042C86.207 44.2834 85.9093 44.0214 85.5627 43.8403C83.5731 42.6945 81.2432 42.0764 78.9655 41.4931C69.5175 39.257 59.7224 38.5903 50.0002 38.5417Z" fill="#5B4EE6"/>
<path d="M25 39.4584V40.6528C27.5451 40.1702 30.1111 39.7882 32.6875 39.4896V38.9236L30.4931 39.0417C28.6632 39.1667 26.8299 39.2882 25 39.4584Z" fill="black"/>
<path d="M45.0903 38.566C41.9653 38.5984 38.8403 38.6736 35.7153 38.7917L36.0139 39.1389C39.0521 38.8681 42.1007 38.7014 45.1459 38.6111L45.0903 38.566Z" fill="black"/>
<path d="M67.3125 38.9271V39.4826C69.8889 39.7812 72.4549 40.1771 75 40.6458V39.4653C73.1702 39.2951 71.3368 39.1736 69.507 39.0451L67.3125 38.9271Z" fill="black"/>
<path d="M57.7119 38.7292C59.4202 38.8056 61.1274 38.9109 62.8334 39.0452L63.1807 38.7535C61.3867 38.691 59.5927 38.6424 57.7987 38.6077L57.7119 38.7292Z" fill="black"/>
</svg>
