<svg width="16" height="16" viewBox="0 0 16 16" fill="none" xmlns="http://www.w3.org/2000/svg">
<circle cx="8" cy="8" r="7.25" stroke="#5B4EE6" stroke-width="1.5"/>
<path d="M8.07327 11.988C7.54527 11.988 7.05727 11.924 6.60927 11.796C6.16127 11.668 5.76127 11.492 5.40927 11.268C5.06527 11.044 4.77727 10.784 4.54527 10.488L5.45727 9.408C5.63327 9.68 5.86127 9.916 6.14127 10.116C6.42127 10.308 6.73727 10.46 7.08927 10.572C7.44127 10.676 7.80127 10.728 8.16927 10.728C8.65727 10.728 9.04127 10.648 9.32127 10.488C9.60127 10.328 9.74127 10.092 9.74127 9.78C9.74127 9.58 9.66127 9.408 9.50127 9.264C9.34927 9.12 9.08127 9.004 8.69727 8.916L7.01727 8.532C6.56927 8.428 6.18527 8.284 5.86527 8.1C5.54527 7.916 5.30127 7.692 5.13327 7.428C4.97327 7.156 4.89327 6.844 4.89327 6.492C4.89327 6.028 5.01727 5.616 5.26527 5.256C5.52127 4.896 5.88127 4.608 6.34527 4.392C6.81727 4.176 7.38527 4.068 8.04927 4.068C8.74527 4.068 9.35727 4.188 9.88527 4.428C10.4133 4.668 10.8613 5.024 11.2293 5.496L10.3653 6.492C10.0453 6.084 9.68927 5.788 9.29727 5.604C8.91327 5.412 8.46127 5.316 7.94127 5.316C7.58927 5.316 7.30127 5.36 7.07727 5.448C6.85327 5.528 6.68527 5.64 6.57327 5.784C6.46927 5.928 6.41727 6.092 6.41727 6.276C6.41727 6.42 6.44927 6.552 6.51327 6.672C6.57727 6.784 6.69727 6.884 6.87327 6.972C7.05727 7.06 7.31727 7.144 7.65327 7.224L9.09327 7.548C9.84527 7.716 10.3853 7.964 10.7133 8.292C11.0493 8.612 11.2173 9.04 11.2173 9.576C11.2173 10.088 11.0853 10.524 10.8213 10.884C10.5573 11.244 10.1853 11.52 9.70527 11.712C9.23327 11.896 8.68927 11.988 8.07327 11.988ZM7.50927 13.104V2.976H8.62527V13.104H7.50927Z" fill="#5B4EE6"/>
</svg>
