<svg width="872" height="261" viewBox="0 0 872 261" fill="none" xmlns="http://www.w3.org/2000/svg">
<path d="M29 157H779" stroke="#E5E5E5" stroke-dasharray="5 5"/>
<path d="M29 217H779" stroke="#E5E5E5"/>
<path d="M29 37H779" stroke="#E5E5E5" stroke-dasharray="5 5"/>
<path d="M29 97H779" stroke="#E5E5E5" stroke-dasharray="5 5"/>
<path d="M760.446 233.412H756.174V235.428H759.546V236.76H756.174V240H754.518V232.08H760.446V233.412ZM763.873 240.12C763.241 240.12 762.689 239.996 762.217 239.748C761.753 239.5 761.393 239.144 761.137 238.68C760.881 238.216 760.753 237.656 760.753 237C760.753 236.344 760.881 235.784 761.137 235.32C761.393 234.856 761.749 234.5 762.205 234.252C762.669 234.004 763.197 233.88 763.789 233.88C764.397 233.88 764.913 234.004 765.337 234.252C765.761 234.492 766.085 234.824 766.309 235.248C766.533 235.664 766.645 236.14 766.645 236.676C766.645 236.836 766.641 236.988 766.633 237.132C766.625 237.276 766.613 237.404 766.597 237.516H761.809V236.376H765.877L765.085 236.664C765.085 236.16 764.969 235.772 764.737 235.5C764.513 235.228 764.193 235.092 763.777 235.092C763.473 235.092 763.209 235.164 762.985 235.308C762.769 235.452 762.605 235.668 762.493 235.956C762.381 236.236 762.325 236.592 762.325 237.024C762.325 237.448 762.385 237.8 762.505 238.08C762.633 238.352 762.809 238.556 763.033 238.692C763.265 238.828 763.541 238.896 763.861 238.896C764.213 238.896 764.497 238.828 764.713 238.692C764.929 238.556 765.097 238.368 765.217 238.128L766.525 238.632C766.397 238.944 766.201 239.212 765.937 239.436C765.681 239.66 765.373 239.832 765.013 239.952C764.661 240.064 764.281 240.12 763.873 240.12ZM771.566 240.12C771.198 240.12 770.862 240.044 770.558 239.892C770.262 239.732 770.014 239.516 769.814 239.244C769.622 238.964 769.49 238.652 769.418 238.308L769.586 238.092L769.49 240H768.038V231.372H769.682V235.692L769.526 235.44C769.654 234.992 769.898 234.62 770.258 234.324C770.618 234.028 771.07 233.88 771.614 233.88C772.086 233.88 772.514 234.004 772.898 234.252C773.282 234.5 773.582 234.856 773.798 235.32C774.022 235.784 774.134 236.348 774.134 237.012C774.134 237.66 774.022 238.216 773.798 238.68C773.582 239.144 773.278 239.5 772.886 239.748C772.502 239.996 772.062 240.12 771.566 240.12ZM771.074 238.86C771.514 238.86 771.858 238.704 772.106 238.392C772.362 238.072 772.49 237.608 772.49 237C772.49 236.392 772.366 235.932 772.118 235.62C771.87 235.3 771.526 235.14 771.086 235.14C770.798 235.14 770.55 235.216 770.342 235.368C770.134 235.52 769.97 235.736 769.85 236.016C769.738 236.296 769.682 236.628 769.682 237.012C769.682 237.404 769.738 237.74 769.85 238.02C769.97 238.292 770.134 238.5 770.342 238.644C770.558 238.788 770.802 238.86 771.074 238.86ZM782.181 240.12C781.165 240.12 780.381 239.776 779.829 239.088C779.285 238.4 779.013 237.384 779.013 236.04C779.013 234.696 779.285 233.68 779.829 232.992C780.381 232.304 781.165 231.96 782.181 231.96C783.197 231.96 783.977 232.304 784.521 232.992C785.073 233.68 785.349 234.696 785.349 236.04C785.349 237.384 785.073 238.4 784.521 239.088C783.977 239.776 783.197 240.12 782.181 240.12ZM782.181 238.788C782.525 238.788 782.805 238.692 783.021 238.5C783.245 238.3 783.413 238 783.525 237.6C783.637 237.192 783.693 236.672 783.693 236.04C783.693 235.408 783.637 234.892 783.525 234.492C783.413 234.084 783.245 233.784 783.021 233.592C782.805 233.392 782.525 233.292 782.181 233.292C781.837 233.292 781.553 233.392 781.329 233.592C781.105 233.784 780.937 234.084 780.825 234.492C780.721 234.892 780.669 235.408 780.669 236.04C780.669 236.672 780.721 237.192 780.825 237.6C780.937 238 781.105 238.3 781.329 238.5C781.553 238.692 781.837 238.788 782.181 238.788ZM789.726 231.984C790.294 231.984 790.786 232.072 791.202 232.248C791.626 232.416 791.95 232.66 792.174 232.98C792.406 233.292 792.522 233.672 792.522 234.12C792.522 234.536 792.418 234.896 792.21 235.2C792.01 235.504 791.718 235.736 791.334 235.896V235.908C791.798 236.076 792.162 236.32 792.426 236.64C792.69 236.96 792.822 237.364 792.822 237.852C792.822 238.316 792.694 238.716 792.438 239.052C792.19 239.388 791.834 239.652 791.37 239.844C790.914 240.028 790.366 240.12 789.726 240.12C789.094 240.12 788.546 240.028 788.082 239.844C787.626 239.652 787.27 239.388 787.014 239.052C786.766 238.716 786.642 238.316 786.642 237.852C786.642 237.372 786.774 236.972 787.038 236.652C787.302 236.324 787.67 236.076 788.142 235.908V235.896C787.758 235.744 787.462 235.516 787.254 235.212C787.046 234.9 786.942 234.536 786.942 234.12C786.942 233.672 787.054 233.292 787.278 232.98C787.51 232.66 787.838 232.416 788.262 232.248C788.686 232.072 789.174 231.984 789.726 231.984ZM789.738 233.256C789.362 233.256 789.062 233.348 788.838 233.532C788.614 233.716 788.502 233.972 788.502 234.3C788.502 234.628 788.614 234.884 788.838 235.068C789.062 235.252 789.362 235.344 789.738 235.344C790.106 235.344 790.398 235.252 790.614 235.068C790.838 234.884 790.95 234.628 790.95 234.3C790.95 233.972 790.842 233.716 790.626 233.532C790.41 233.348 790.114 233.256 789.738 233.256ZM789.738 238.836C790.042 238.836 790.302 238.792 790.518 238.704C790.734 238.616 790.898 238.484 791.01 238.308C791.13 238.132 791.19 237.924 791.19 237.684C791.19 237.444 791.13 237.236 791.01 237.06C790.898 236.884 790.73 236.752 790.506 236.664C790.29 236.568 790.034 236.52 789.738 236.52C789.442 236.52 789.182 236.568 788.958 236.664C788.734 236.752 788.562 236.884 788.442 237.06C788.322 237.236 788.262 237.444 788.262 237.684C788.262 237.924 788.322 238.132 788.442 238.308C788.562 238.484 788.73 238.616 788.946 238.704C789.17 238.792 789.434 238.836 789.738 238.836ZM795.139 238.164C795.395 238.164 795.607 238.228 795.775 238.356C795.943 238.476 796.071 238.64 796.159 238.848C796.247 239.048 796.291 239.272 796.291 239.52C796.291 239.848 796.223 240.164 796.087 240.468C795.959 240.772 795.779 241.044 795.547 241.284C795.315 241.524 795.051 241.712 794.755 241.848L794.047 241.284C794.263 241.196 794.459 241.088 794.635 240.96C794.819 240.832 794.975 240.688 795.103 240.528C795.231 240.368 795.323 240.204 795.379 240.036L795.319 240C795.279 240.024 795.231 240.044 795.175 240.06C795.119 240.084 795.039 240.096 794.935 240.096C794.807 240.096 794.679 240.064 794.551 240C794.423 239.928 794.315 239.828 794.227 239.7C794.139 239.564 794.095 239.396 794.095 239.196C794.095 238.98 794.143 238.796 794.239 238.644C794.335 238.492 794.463 238.376 794.623 238.296C794.783 238.208 794.955 238.164 795.139 238.164ZM763.331 254V252.884C764.051 252.396 764.659 251.956 765.155 251.564C765.659 251.164 766.063 250.796 766.367 250.46C766.679 250.116 766.903 249.792 767.039 249.488C767.183 249.184 767.255 248.88 767.255 248.576C767.255 248.208 767.143 247.908 766.919 247.676C766.695 247.436 766.379 247.316 765.971 247.316C765.523 247.316 765.171 247.468 764.915 247.772C764.667 248.076 764.531 248.508 764.507 249.068L763.079 248.528C763.119 247.984 763.263 247.524 763.511 247.148C763.767 246.764 764.111 246.472 764.543 246.272C764.983 246.064 765.487 245.96 766.055 245.96C766.543 245.96 766.963 246.028 767.315 246.164C767.675 246.3 767.971 246.488 768.203 246.728C768.443 246.96 768.623 247.228 768.743 247.532C768.863 247.836 768.923 248.152 768.923 248.48C768.923 248.992 768.795 249.476 768.539 249.932C768.291 250.388 767.907 250.84 767.387 251.288C766.867 251.736 766.207 252.208 765.407 252.704V252.716C765.527 252.708 765.671 252.7 765.839 252.692C766.015 252.684 766.195 252.68 766.379 252.68C766.563 252.672 766.723 252.668 766.859 252.668H769.043V254H763.331ZM773.457 254.12C772.441 254.12 771.657 253.776 771.105 253.088C770.561 252.4 770.289 251.384 770.289 250.04C770.289 248.696 770.561 247.68 771.105 246.992C771.657 246.304 772.441 245.96 773.457 245.96C774.473 245.96 775.253 246.304 775.797 246.992C776.349 247.68 776.625 248.696 776.625 250.04C776.625 251.384 776.349 252.4 775.797 253.088C775.253 253.776 774.473 254.12 773.457 254.12ZM773.457 252.788C773.801 252.788 774.081 252.692 774.297 252.5C774.521 252.3 774.689 252 774.801 251.6C774.913 251.192 774.969 250.672 774.969 250.04C774.969 249.408 774.913 248.892 774.801 248.492C774.689 248.084 774.521 247.784 774.297 247.592C774.081 247.392 773.801 247.292 773.457 247.292C773.113 247.292 772.829 247.392 772.605 247.592C772.381 247.784 772.213 248.084 772.101 248.492C771.997 248.892 771.945 249.408 771.945 250.04C771.945 250.672 771.997 251.192 772.101 251.6C772.213 252 772.381 252.3 772.605 252.5C772.829 252.692 773.113 252.788 773.457 252.788ZM778.05 254V252.884C778.77 252.396 779.378 251.956 779.874 251.564C780.378 251.164 780.782 250.796 781.086 250.46C781.398 250.116 781.622 249.792 781.758 249.488C781.902 249.184 781.974 248.88 781.974 248.576C781.974 248.208 781.862 247.908 781.638 247.676C781.414 247.436 781.098 247.316 780.69 247.316C780.242 247.316 779.89 247.468 779.634 247.772C779.386 248.076 779.25 248.508 779.226 249.068L777.798 248.528C777.838 247.984 777.982 247.524 778.23 247.148C778.486 246.764 778.83 246.472 779.262 246.272C779.702 246.064 780.206 245.96 780.774 245.96C781.262 245.96 781.682 246.028 782.034 246.164C782.394 246.3 782.69 246.488 782.922 246.728C783.162 246.96 783.342 247.228 783.462 247.532C783.582 247.836 783.642 248.152 783.642 248.48C783.642 248.992 783.514 249.476 783.258 249.932C783.01 250.388 782.626 250.84 782.106 251.288C781.586 251.736 780.926 252.208 780.126 252.704V252.716C780.246 252.708 780.39 252.7 780.558 252.692C780.734 252.684 780.914 252.68 781.098 252.68C781.282 252.672 781.442 252.668 781.578 252.668H783.762V254H778.05ZM785.139 254V252.884C785.859 252.396 786.467 251.956 786.963 251.564C787.467 251.164 787.871 250.796 788.175 250.46C788.487 250.116 788.711 249.792 788.847 249.488C788.991 249.184 789.063 248.88 789.063 248.576C789.063 248.208 788.951 247.908 788.727 247.676C788.503 247.436 788.187 247.316 787.779 247.316C787.331 247.316 786.979 247.468 786.723 247.772C786.475 248.076 786.339 248.508 786.315 249.068L784.887 248.528C784.927 247.984 785.071 247.524 785.319 247.148C785.575 246.764 785.919 246.472 786.351 246.272C786.791 246.064 787.295 245.96 787.863 245.96C788.351 245.96 788.771 246.028 789.123 246.164C789.483 246.3 789.779 246.488 790.011 246.728C790.251 246.96 790.431 247.228 790.551 247.532C790.671 247.836 790.731 248.152 790.731 248.48C790.731 248.992 790.603 249.476 790.347 249.932C790.099 250.388 789.715 250.84 789.195 251.288C788.675 251.736 788.015 252.208 787.215 252.704V252.716C787.335 252.708 787.479 252.7 787.647 252.692C787.823 252.684 788.003 252.68 788.187 252.68C788.371 252.672 788.531 252.668 788.667 252.668H790.851V254H785.139Z" fill="#777777"/>
<path d="M22.3496 236.08V241.192C22.3496 242.112 22.0936 242.832 21.5816 243.352C21.0776 243.864 20.3736 244.12 19.4696 244.12C18.8216 244.12 18.2936 244 17.8856 243.76C17.4776 243.52 17.1936 243.184 17.0336 242.752C16.8736 242.312 16.8456 241.804 16.9496 241.228L18.1856 241C18.0896 241.688 18.1416 242.196 18.3416 242.524C18.5416 242.844 18.9176 243.004 19.4696 243.004C20.0696 243.004 20.4816 242.832 20.7056 242.488C20.9376 242.136 21.0536 241.624 21.0536 240.952V236.08H22.3496ZM27.7062 240.148C27.7062 239.748 27.5942 239.44 27.3702 239.224C27.1542 239 26.8542 238.888 26.4702 238.888C26.1102 238.888 25.8022 238.972 25.5462 239.14C25.2902 239.308 25.1022 239.58 24.9822 239.956L23.9022 239.5C24.0542 239.012 24.3502 238.62 24.7902 238.324C25.2382 238.028 25.8142 237.88 26.5182 237.88C26.9982 237.88 27.4222 237.96 27.7902 238.12C28.1582 238.272 28.4462 238.504 28.6542 238.816C28.8702 239.128 28.9782 239.528 28.9782 240.016V242.692C28.9782 242.988 29.1262 243.136 29.4222 243.136C29.5662 243.136 29.7062 243.116 29.8422 243.076L29.7702 243.964C29.5862 244.052 29.3542 244.096 29.0742 244.096C28.8182 244.096 28.5862 244.052 28.3782 243.964C28.1782 243.868 28.0182 243.728 27.8982 243.544C27.7862 243.352 27.7302 243.116 27.7302 242.836V242.752L27.9942 242.74C27.9222 243.052 27.7742 243.312 27.5502 243.52C27.3262 243.72 27.0662 243.872 26.7702 243.976C26.4742 244.072 26.1742 244.12 25.8702 244.12C25.4942 244.12 25.1542 244.06 24.8502 243.94C24.5542 243.82 24.3182 243.64 24.1422 243.4C23.9742 243.152 23.8902 242.848 23.8902 242.488C23.8902 242.04 24.0342 241.672 24.3222 241.384C24.6182 241.096 25.0342 240.9 25.5702 240.796L27.8982 240.34L27.8862 241.24L26.1942 241.588C25.8582 241.652 25.6062 241.744 25.4382 241.864C25.2702 241.984 25.1862 242.16 25.1862 242.392C25.1862 242.616 25.2702 242.796 25.4382 242.932C25.6142 243.06 25.8462 243.124 26.1342 243.124C26.3342 243.124 26.5262 243.1 26.7102 243.052C26.9022 243.004 27.0742 242.928 27.2262 242.824C27.3782 242.712 27.4942 242.572 27.5742 242.404C27.6622 242.228 27.7062 242.02 27.7062 241.78V240.148ZM31.0819 244V238H32.2219L32.3059 239.56L32.1379 239.392C32.2499 239.048 32.4099 238.764 32.6179 238.54C32.8339 238.308 33.0859 238.14 33.3739 238.036C33.6699 237.932 33.9819 237.88 34.3099 237.88C34.7339 237.88 35.1139 237.964 35.4499 238.132C35.7939 238.292 36.0659 238.536 36.2659 238.864C36.4659 239.192 36.5659 239.608 36.5659 240.112V244H35.2819V240.508C35.2819 239.916 35.1579 239.508 34.9099 239.284C34.6699 239.052 34.3659 238.936 33.9979 238.936C33.7339 238.936 33.4779 239 33.2299 239.128C32.9819 239.248 32.7739 239.444 32.6059 239.716C32.4459 239.988 32.3659 240.352 32.3659 240.808V244H31.0819ZM45.186 244.12C44.234 244.12 43.486 243.776 42.942 243.088C42.406 242.392 42.138 241.376 42.138 240.04C42.138 238.704 42.406 237.692 42.942 237.004C43.486 236.308 44.234 235.96 45.186 235.96C46.146 235.96 46.894 236.308 47.43 237.004C47.974 237.692 48.246 238.704 48.246 240.04C48.246 241.376 47.974 242.392 47.43 243.088C46.894 243.776 46.146 244.12 45.186 244.12ZM45.186 243.028C45.57 243.028 45.89 242.92 46.146 242.704C46.41 242.48 46.606 242.148 46.734 241.708C46.87 241.26 46.938 240.704 46.938 240.04C46.938 239.376 46.87 238.824 46.734 238.384C46.606 237.936 46.41 237.604 46.146 237.388C45.89 237.164 45.57 237.052 45.186 237.052C44.802 237.052 44.478 237.164 44.214 237.388C43.958 237.604 43.766 237.936 43.638 238.384C43.51 238.824 43.446 239.376 43.446 240.04C43.446 240.704 43.51 241.26 43.638 241.708C43.766 242.148 43.958 242.48 44.214 242.704C44.478 242.92 44.802 243.028 45.186 243.028ZM52.6731 235.972C53.2091 235.972 53.6731 236.06 54.0651 236.236C54.4651 236.404 54.7731 236.644 54.9891 236.956C55.2051 237.268 55.3131 237.644 55.3131 238.084C55.3131 238.492 55.2131 238.852 55.0131 239.164C54.8211 239.468 54.5371 239.7 54.1611 239.86V239.872C54.6171 240.04 54.9771 240.292 55.2411 240.628C55.5131 240.956 55.6491 241.364 55.6491 241.852C55.6491 242.324 55.5251 242.728 55.2771 243.064C55.0371 243.4 54.6931 243.66 54.2451 243.844C53.8051 244.028 53.2811 244.12 52.6731 244.12C52.0651 244.12 51.5371 244.028 51.0891 243.844C50.6491 243.66 50.3051 243.4 50.0571 243.064C49.8091 242.728 49.6851 242.324 49.6851 241.852C49.6851 241.372 49.8171 240.964 50.0811 240.628C50.3451 240.292 50.7131 240.04 51.1851 239.872V239.86C50.8251 239.708 50.5411 239.48 50.3331 239.176C50.1251 238.864 50.0211 238.5 50.0211 238.084C50.0211 237.644 50.1291 237.268 50.3451 236.956C50.5611 236.644 50.8691 236.404 51.2691 236.236C51.6691 236.06 52.1371 235.972 52.6731 235.972ZM52.6731 237.052C52.2491 237.052 51.9091 237.156 51.6531 237.364C51.4051 237.572 51.2811 237.856 51.2811 238.216C51.2811 238.576 51.4091 238.86 51.6651 239.068C51.9211 239.268 52.2571 239.368 52.6731 239.368C53.0891 239.368 53.4211 239.268 53.6691 239.068C53.9251 238.86 54.0531 238.576 54.0531 238.216C54.0531 237.856 53.9291 237.572 53.6811 237.364C53.4331 237.156 53.0971 237.052 52.6731 237.052ZM52.6731 243.04C53.0251 243.04 53.3251 242.988 53.5731 242.884C53.8211 242.78 54.0131 242.628 54.1491 242.428C54.2851 242.228 54.3531 241.996 54.3531 241.732C54.3531 241.452 54.2811 241.216 54.1371 241.024C54.0011 240.824 53.8091 240.672 53.5611 240.568C53.3131 240.464 53.0171 240.412 52.6731 240.412C52.3371 240.412 52.0411 240.464 51.7851 240.568C51.5291 240.672 51.3291 240.824 51.1851 241.024C51.0491 241.216 50.9811 241.452 50.9811 241.732C50.9811 241.996 51.0491 242.228 51.1851 242.428C51.3211 242.628 51.5171 242.78 51.7731 242.884C52.0291 242.988 52.3291 243.04 52.6731 243.04ZM58.0148 242.38C58.2388 242.38 58.4228 242.436 58.5668 242.548C58.7188 242.652 58.8348 242.8 58.9148 242.992C58.9948 243.176 59.0348 243.388 59.0348 243.628C59.0348 243.924 58.9788 244.208 58.8668 244.48C58.7548 244.76 58.5908 245.012 58.3748 245.236C58.1668 245.468 57.9148 245.656 57.6188 245.8L57.0188 245.284C57.2348 245.204 57.4268 245.1 57.5948 244.972C57.7628 244.844 57.9028 244.7 58.0148 244.54C58.1348 244.38 58.2188 244.216 58.2668 244.048L58.2188 244.024C58.1788 244.048 58.1308 244.068 58.0748 244.084C58.0268 244.1 57.9548 244.108 57.8588 244.108C57.7468 244.108 57.6308 244.076 57.5108 244.012C57.3988 243.956 57.3028 243.868 57.2228 243.748C57.1428 243.628 57.1028 243.472 57.1028 243.28C57.1028 243.104 57.1428 242.948 57.2228 242.812C57.3108 242.676 57.4228 242.572 57.5588 242.5C57.6948 242.42 57.8468 242.38 58.0148 242.38ZM26.508 258V257.064C27.268 256.52 27.904 256.04 28.416 255.624C28.936 255.208 29.352 254.824 29.664 254.472C29.976 254.12 30.2 253.788 30.336 253.476C30.48 253.156 30.552 252.832 30.552 252.504C30.552 252.08 30.42 251.736 30.156 251.472C29.892 251.208 29.524 251.076 29.052 251.076C28.556 251.076 28.16 251.244 27.864 251.58C27.576 251.908 27.412 252.36 27.372 252.936L26.256 252.42C26.312 251.916 26.46 251.48 26.7 251.112C26.94 250.744 27.264 250.46 27.672 250.26C28.088 250.06 28.568 249.96 29.112 249.96C29.56 249.96 29.952 250.024 30.288 250.152C30.632 250.28 30.92 250.46 31.152 250.692C31.384 250.916 31.56 251.18 31.68 251.484C31.808 251.788 31.872 252.112 31.872 252.456C31.872 252.96 31.748 253.448 31.5 253.92C31.252 254.384 30.86 254.86 30.324 255.348C29.788 255.836 29.084 256.36 28.212 256.92V256.944C28.308 256.928 28.44 256.92 28.608 256.92C28.776 256.912 28.944 256.908 29.112 256.908C29.28 256.9 29.416 256.896 29.52 256.896H32.016V258H26.508ZM36.4789 258.12C35.5269 258.12 34.7789 257.776 34.2349 257.088C33.6989 256.392 33.4309 255.376 33.4309 254.04C33.4309 252.704 33.6989 251.692 34.2349 251.004C34.7789 250.308 35.5269 249.96 36.4789 249.96C37.4389 249.96 38.1869 250.308 38.7229 251.004C39.2669 251.692 39.5389 252.704 39.5389 254.04C39.5389 255.376 39.2669 256.392 38.7229 257.088C38.1869 257.776 37.4389 258.12 36.4789 258.12ZM36.4789 257.028C36.8629 257.028 37.1829 256.92 37.4389 256.704C37.7029 256.48 37.8989 256.148 38.0269 255.708C38.1629 255.26 38.2309 254.704 38.2309 254.04C38.2309 253.376 38.1629 252.824 38.0269 252.384C37.8989 251.936 37.7029 251.604 37.4389 251.388C37.1829 251.164 36.8629 251.052 36.4789 251.052C36.0949 251.052 35.7709 251.164 35.5069 251.388C35.2509 251.604 35.0589 251.936 34.9309 252.384C34.8029 252.824 34.7389 253.376 34.7389 254.04C34.7389 254.704 34.8029 255.26 34.9309 255.708C35.0589 256.148 35.2509 256.48 35.5069 256.704C35.7709 256.92 36.0949 257.028 36.4789 257.028ZM41.0861 258V257.064C41.8461 256.52 42.4821 256.04 42.9941 255.624C43.5141 255.208 43.9301 254.824 44.2421 254.472C44.5541 254.12 44.7781 253.788 44.9141 253.476C45.0581 253.156 45.1301 252.832 45.1301 252.504C45.1301 252.08 44.9981 251.736 44.7341 251.472C44.4701 251.208 44.1021 251.076 43.6301 251.076C43.1341 251.076 42.7381 251.244 42.4421 251.58C42.1541 251.908 41.9901 252.36 41.9501 252.936L40.8341 252.42C40.8901 251.916 41.0381 251.48 41.2781 251.112C41.5181 250.744 41.8421 250.46 42.2501 250.26C42.6661 250.06 43.1461 249.96 43.6901 249.96C44.1381 249.96 44.5301 250.024 44.8661 250.152C45.2101 250.28 45.4981 250.46 45.7301 250.692C45.9621 250.916 46.1381 251.18 46.2581 251.484C46.3861 251.788 46.4501 252.112 46.4501 252.456C46.4501 252.96 46.3261 253.448 46.0781 253.92C45.8301 254.384 45.4381 254.86 44.9021 255.348C44.3661 255.836 43.6621 256.36 42.7901 256.92V256.944C42.8861 256.928 43.0181 256.92 43.1861 256.92C43.3541 256.912 43.5221 256.908 43.6901 256.908C43.8581 256.9 43.9941 256.896 44.0981 256.896H46.5941V258H41.0861ZM48.1291 258V257.064C48.8891 256.52 49.5251 256.04 50.0371 255.624C50.5571 255.208 50.9731 254.824 51.2851 254.472C51.5971 254.12 51.8211 253.788 51.9571 253.476C52.1011 253.156 52.1731 252.832 52.1731 252.504C52.1731 252.08 52.0411 251.736 51.7771 251.472C51.5131 251.208 51.1451 251.076 50.6731 251.076C50.1771 251.076 49.7811 251.244 49.4851 251.58C49.1971 251.908 49.0331 252.36 48.9931 252.936L47.8771 252.42C47.9331 251.916 48.0811 251.48 48.3211 251.112C48.5611 250.744 48.8851 250.46 49.2931 250.26C49.7091 250.06 50.1891 249.96 50.7331 249.96C51.1811 249.96 51.5731 250.024 51.9091 250.152C52.2531 250.28 52.5411 250.46 52.7731 250.692C53.0051 250.916 53.1811 251.18 53.3011 251.484C53.4291 251.788 53.4931 252.112 53.4931 252.456C53.4931 252.96 53.3691 253.448 53.1211 253.92C52.8731 254.384 52.4811 254.86 51.9451 255.348C51.4091 255.836 50.7051 256.36 49.8331 256.92V256.944C49.9291 256.928 50.0611 256.92 50.2291 256.92C50.3971 256.912 50.5651 256.908 50.7331 256.908C50.9011 256.9 51.0371 256.896 51.1411 256.896H53.6371V258H48.1291Z" fill="#C4C4C4"/>
<path d="M270.02 236.08V241.192C270.02 242.112 269.764 242.832 269.252 243.352C268.748 243.864 268.044 244.12 267.14 244.12C266.492 244.12 265.964 244 265.556 243.76C265.148 243.52 264.864 243.184 264.704 242.752C264.544 242.312 264.516 241.804 264.62 241.228L265.856 241C265.76 241.688 265.812 242.196 266.012 242.524C266.212 242.844 266.588 243.004 267.14 243.004C267.74 243.004 268.152 242.832 268.376 242.488C268.608 242.136 268.724 241.624 268.724 240.952V236.08H270.02ZM275.376 240.148C275.376 239.748 275.264 239.44 275.04 239.224C274.824 239 274.524 238.888 274.14 238.888C273.78 238.888 273.472 238.972 273.216 239.14C272.96 239.308 272.772 239.58 272.652 239.956L271.572 239.5C271.724 239.012 272.02 238.62 272.46 238.324C272.908 238.028 273.484 237.88 274.188 237.88C274.668 237.88 275.092 237.96 275.46 238.12C275.828 238.272 276.116 238.504 276.324 238.816C276.54 239.128 276.648 239.528 276.648 240.016V242.692C276.648 242.988 276.796 243.136 277.092 243.136C277.236 243.136 277.376 243.116 277.512 243.076L277.44 243.964C277.256 244.052 277.024 244.096 276.744 244.096C276.488 244.096 276.256 244.052 276.048 243.964C275.848 243.868 275.688 243.728 275.568 243.544C275.456 243.352 275.4 243.116 275.4 242.836V242.752L275.664 242.74C275.592 243.052 275.444 243.312 275.22 243.52C274.996 243.72 274.736 243.872 274.44 243.976C274.144 244.072 273.844 244.12 273.54 244.12C273.164 244.12 272.824 244.06 272.52 243.94C272.224 243.82 271.988 243.64 271.812 243.4C271.644 243.152 271.56 242.848 271.56 242.488C271.56 242.04 271.704 241.672 271.992 241.384C272.288 241.096 272.704 240.9 273.24 240.796L275.568 240.34L275.556 241.24L273.864 241.588C273.528 241.652 273.276 241.744 273.108 241.864C272.94 241.984 272.856 242.16 272.856 242.392C272.856 242.616 272.94 242.796 273.108 242.932C273.284 243.06 273.516 243.124 273.804 243.124C274.004 243.124 274.196 243.1 274.38 243.052C274.572 243.004 274.744 242.928 274.896 242.824C275.048 242.712 275.164 242.572 275.244 242.404C275.332 242.228 275.376 242.02 275.376 241.78V240.148ZM278.752 244V238H279.892L279.976 239.56L279.808 239.392C279.92 239.048 280.08 238.764 280.288 238.54C280.504 238.308 280.756 238.14 281.044 238.036C281.34 237.932 281.652 237.88 281.98 237.88C282.404 237.88 282.784 237.964 283.12 238.132C283.464 238.292 283.736 238.536 283.936 238.864C284.136 239.192 284.236 239.608 284.236 240.112V244H282.952V240.508C282.952 239.916 282.828 239.508 282.58 239.284C282.34 239.052 282.036 238.936 281.668 238.936C281.404 238.936 281.148 239 280.9 239.128C280.652 239.248 280.444 239.444 280.276 239.716C280.116 239.988 280.036 240.352 280.036 240.808V244H278.752ZM291.336 244V238.564C291.336 238.404 291.336 238.24 291.336 238.072C291.344 237.896 291.352 237.712 291.36 237.52C291.088 237.784 290.776 238.012 290.424 238.204C290.08 238.388 289.724 238.52 289.356 238.6L289.116 237.484C289.284 237.46 289.48 237.404 289.704 237.316C289.928 237.228 290.16 237.116 290.4 236.98C290.64 236.844 290.86 236.7 291.06 236.548C291.26 236.388 291.416 236.232 291.528 236.08H292.608V244H291.336ZM297.173 244.12C296.469 244.12 295.889 243.968 295.433 243.664C294.985 243.36 294.629 242.92 294.365 242.344L295.565 241.72C295.685 242.104 295.865 242.42 296.105 242.668C296.353 242.908 296.717 243.028 297.197 243.028C297.533 243.028 297.817 242.968 298.049 242.848C298.289 242.72 298.473 242.544 298.601 242.32C298.729 242.088 298.793 241.812 298.793 241.492C298.793 241.156 298.733 240.876 298.613 240.652C298.493 240.428 298.321 240.26 298.097 240.148C297.873 240.028 297.593 239.968 297.257 239.968C297.025 239.968 296.809 239.992 296.609 240.04C296.409 240.088 296.229 240.164 296.069 240.268C295.909 240.364 295.769 240.492 295.649 240.652L294.593 240.448L295.073 236.08H299.681V237.184H296.093L295.805 239.416L295.781 239.548H295.805C295.989 239.348 296.225 239.192 296.513 239.08C296.809 238.968 297.157 238.912 297.557 238.912C298.069 238.912 298.509 239.02 298.877 239.236C299.245 239.444 299.533 239.736 299.741 240.112C299.949 240.488 300.053 240.924 300.053 241.42C300.053 241.852 299.981 242.236 299.837 242.572C299.693 242.908 299.489 243.192 299.225 243.424C298.961 243.656 298.653 243.832 298.301 243.952C297.957 244.064 297.581 244.12 297.173 244.12ZM302.345 242.38C302.569 242.38 302.753 242.436 302.897 242.548C303.049 242.652 303.165 242.8 303.245 242.992C303.325 243.176 303.365 243.388 303.365 243.628C303.365 243.924 303.309 244.208 303.197 244.48C303.085 244.76 302.921 245.012 302.705 245.236C302.497 245.468 302.245 245.656 301.949 245.8L301.349 245.284C301.565 245.204 301.757 245.1 301.925 244.972C302.093 244.844 302.233 244.7 302.345 244.54C302.465 244.38 302.549 244.216 302.597 244.048L302.549 244.024C302.509 244.048 302.461 244.068 302.405 244.084C302.357 244.1 302.285 244.108 302.189 244.108C302.077 244.108 301.961 244.076 301.841 244.012C301.729 243.956 301.633 243.868 301.553 243.748C301.473 243.628 301.433 243.472 301.433 243.28C301.433 243.104 301.473 242.948 301.553 242.812C301.641 242.676 301.753 242.572 301.889 242.5C302.025 242.42 302.177 242.38 302.345 242.38ZM272.508 258V257.064C273.268 256.52 273.904 256.04 274.416 255.624C274.936 255.208 275.352 254.824 275.664 254.472C275.976 254.12 276.2 253.788 276.336 253.476C276.48 253.156 276.552 252.832 276.552 252.504C276.552 252.08 276.42 251.736 276.156 251.472C275.892 251.208 275.524 251.076 275.052 251.076C274.556 251.076 274.16 251.244 273.864 251.58C273.576 251.908 273.412 252.36 273.372 252.936L272.256 252.42C272.312 251.916 272.46 251.48 272.7 251.112C272.94 250.744 273.264 250.46 273.672 250.26C274.088 250.06 274.568 249.96 275.112 249.96C275.56 249.96 275.952 250.024 276.288 250.152C276.632 250.28 276.92 250.46 277.152 250.692C277.384 250.916 277.56 251.18 277.68 251.484C277.808 251.788 277.872 252.112 277.872 252.456C277.872 252.96 277.748 253.448 277.5 253.92C277.252 254.384 276.86 254.86 276.324 255.348C275.788 255.836 275.084 256.36 274.212 256.92V256.944C274.308 256.928 274.44 256.92 274.608 256.92C274.776 256.912 274.944 256.908 275.112 256.908C275.28 256.9 275.416 256.896 275.52 256.896H278.016V258H272.508ZM282.479 258.12C281.527 258.12 280.779 257.776 280.235 257.088C279.699 256.392 279.431 255.376 279.431 254.04C279.431 252.704 279.699 251.692 280.235 251.004C280.779 250.308 281.527 249.96 282.479 249.96C283.439 249.96 284.187 250.308 284.723 251.004C285.267 251.692 285.539 252.704 285.539 254.04C285.539 255.376 285.267 256.392 284.723 257.088C284.187 257.776 283.439 258.12 282.479 258.12ZM282.479 257.028C282.863 257.028 283.183 256.92 283.439 256.704C283.703 256.48 283.899 256.148 284.027 255.708C284.163 255.26 284.231 254.704 284.231 254.04C284.231 253.376 284.163 252.824 284.027 252.384C283.899 251.936 283.703 251.604 283.439 251.388C283.183 251.164 282.863 251.052 282.479 251.052C282.095 251.052 281.771 251.164 281.507 251.388C281.251 251.604 281.059 251.936 280.931 252.384C280.803 252.824 280.739 253.376 280.739 254.04C280.739 254.704 280.803 255.26 280.931 255.708C281.059 256.148 281.251 256.48 281.507 256.704C281.771 256.92 282.095 257.028 282.479 257.028ZM287.086 258V257.064C287.846 256.52 288.482 256.04 288.994 255.624C289.514 255.208 289.93 254.824 290.242 254.472C290.554 254.12 290.778 253.788 290.914 253.476C291.058 253.156 291.13 252.832 291.13 252.504C291.13 252.08 290.998 251.736 290.734 251.472C290.47 251.208 290.102 251.076 289.63 251.076C289.134 251.076 288.738 251.244 288.442 251.58C288.154 251.908 287.99 252.36 287.95 252.936L286.834 252.42C286.89 251.916 287.038 251.48 287.278 251.112C287.518 250.744 287.842 250.46 288.25 250.26C288.666 250.06 289.146 249.96 289.69 249.96C290.138 249.96 290.53 250.024 290.866 250.152C291.21 250.28 291.498 250.46 291.73 250.692C291.962 250.916 292.138 251.18 292.258 251.484C292.386 251.788 292.45 252.112 292.45 252.456C292.45 252.96 292.326 253.448 292.078 253.92C291.83 254.384 291.438 254.86 290.902 255.348C290.366 255.836 289.662 256.36 288.79 256.92V256.944C288.886 256.928 289.018 256.92 289.186 256.92C289.354 256.912 289.522 256.908 289.69 256.908C289.858 256.9 289.994 256.896 290.098 256.896H292.594V258H287.086ZM294.129 258V257.064C294.889 256.52 295.525 256.04 296.037 255.624C296.557 255.208 296.973 254.824 297.285 254.472C297.597 254.12 297.821 253.788 297.957 253.476C298.101 253.156 298.173 252.832 298.173 252.504C298.173 252.08 298.041 251.736 297.777 251.472C297.513 251.208 297.145 251.076 296.673 251.076C296.177 251.076 295.781 251.244 295.485 251.58C295.197 251.908 295.033 252.36 294.993 252.936L293.877 252.42C293.933 251.916 294.081 251.48 294.321 251.112C294.561 250.744 294.885 250.46 295.293 250.26C295.709 250.06 296.189 249.96 296.733 249.96C297.181 249.96 297.573 250.024 297.909 250.152C298.253 250.28 298.541 250.46 298.773 250.692C299.005 250.916 299.181 251.18 299.301 251.484C299.429 251.788 299.493 252.112 299.493 252.456C299.493 252.96 299.369 253.448 299.121 253.92C298.873 254.384 298.481 254.86 297.945 255.348C297.409 255.836 296.705 256.36 295.833 256.92V256.944C295.929 256.928 296.061 256.92 296.229 256.92C296.397 256.912 296.565 256.908 296.733 256.908C296.901 256.9 297.037 256.896 297.141 256.896H299.637V258H294.129Z" fill="#C4C4C4"/>
<path d="M515.093 237.184H510.653V239.488H514.133V240.592H510.653V244H509.369V236.08H515.093V237.184ZM518.532 244.12C517.932 244.12 517.404 243.996 516.948 243.748C516.492 243.5 516.136 243.144 515.88 242.68C515.632 242.208 515.508 241.648 515.508 241C515.508 240.352 515.632 239.796 515.88 239.332C516.136 238.86 516.488 238.5 516.936 238.252C517.384 238.004 517.892 237.88 518.46 237.88C519.044 237.88 519.54 238 519.948 238.24C520.356 238.48 520.668 238.808 520.884 239.224C521.1 239.64 521.208 240.112 521.208 240.64C521.208 240.784 521.204 240.92 521.196 241.048C521.188 241.176 521.176 241.288 521.16 241.384H516.336V240.4H520.596L519.96 240.592C519.96 240.048 519.824 239.632 519.552 239.344C519.28 239.048 518.908 238.9 518.436 238.9C518.092 238.9 517.792 238.98 517.536 239.14C517.28 239.3 517.084 239.54 516.948 239.86C516.812 240.172 516.744 240.556 516.744 241.012C516.744 241.46 516.816 241.84 516.96 242.152C517.104 242.464 517.308 242.7 517.572 242.86C517.836 243.02 518.148 243.1 518.508 243.1C518.908 243.1 519.232 243.024 519.48 242.872C519.728 242.72 519.924 242.508 520.068 242.236L521.088 242.716C520.944 243.004 520.748 243.256 520.5 243.472C520.26 243.68 519.972 243.84 519.636 243.952C519.3 244.064 518.932 244.12 518.532 244.12ZM526.046 244.12C525.694 244.12 525.37 244.052 525.074 243.916C524.786 243.78 524.542 243.592 524.342 243.352C524.142 243.104 523.994 242.828 523.898 242.524L524.054 242.32L523.958 244H522.83V235.3H524.114V239.512L523.97 239.308C524.122 238.892 524.382 238.552 524.75 238.288C525.118 238.016 525.562 237.88 526.082 237.88C526.562 237.88 527.002 238.004 527.402 238.252C527.81 238.5 528.13 238.856 528.362 239.32C528.594 239.784 528.71 240.348 528.71 241.012C528.71 241.66 528.59 242.216 528.35 242.68C528.118 243.144 527.798 243.5 527.39 243.748C526.99 243.996 526.542 244.12 526.046 244.12ZM525.77 243.088C526.29 243.088 526.694 242.904 526.982 242.536C527.278 242.16 527.426 241.648 527.426 241C527.426 240.352 527.282 239.844 526.994 239.476C526.706 239.108 526.302 238.924 525.782 238.924C525.446 238.924 525.154 239.012 524.906 239.188C524.658 239.356 524.462 239.596 524.318 239.908C524.182 240.22 524.114 240.592 524.114 241.024C524.114 241.448 524.182 241.816 524.318 242.128C524.454 242.432 524.646 242.668 524.894 242.836C525.15 243.004 525.442 243.088 525.77 243.088ZM537.028 244.12C536.076 244.12 535.328 243.776 534.784 243.088C534.248 242.392 533.98 241.376 533.98 240.04C533.98 238.704 534.248 237.692 534.784 237.004C535.328 236.308 536.076 235.96 537.028 235.96C537.988 235.96 538.736 236.308 539.272 237.004C539.816 237.692 540.088 238.704 540.088 240.04C540.088 241.376 539.816 242.392 539.272 243.088C538.736 243.776 537.988 244.12 537.028 244.12ZM537.028 243.028C537.412 243.028 537.732 242.92 537.988 242.704C538.252 242.48 538.448 242.148 538.576 241.708C538.712 241.26 538.78 240.704 538.78 240.04C538.78 239.376 538.712 238.824 538.576 238.384C538.448 237.936 538.252 237.604 537.988 237.388C537.732 237.164 537.412 237.052 537.028 237.052C536.644 237.052 536.32 237.164 536.056 237.388C535.8 237.604 535.608 237.936 535.48 238.384C535.352 238.824 535.288 239.376 535.288 240.04C535.288 240.704 535.352 241.26 535.48 241.708C535.608 242.148 535.8 242.48 536.056 242.704C536.32 242.92 536.644 243.028 537.028 243.028ZM543.231 244V238.564C543.231 238.404 543.231 238.24 543.231 238.072C543.239 237.896 543.247 237.712 543.255 237.52C542.983 237.784 542.671 238.012 542.319 238.204C541.975 238.388 541.619 238.52 541.251 238.6L541.011 237.484C541.179 237.46 541.375 237.404 541.599 237.316C541.823 237.228 542.055 237.116 542.295 236.98C542.535 236.844 542.755 236.7 542.955 236.548C543.155 236.388 543.311 236.232 543.423 236.08H544.503V244H543.231ZM547.255 242.38C547.479 242.38 547.663 242.436 547.807 242.548C547.959 242.652 548.075 242.8 548.155 242.992C548.235 243.176 548.275 243.388 548.275 243.628C548.275 243.924 548.219 244.208 548.107 244.48C547.995 244.76 547.831 245.012 547.615 245.236C547.407 245.468 547.155 245.656 546.859 245.8L546.259 245.284C546.475 245.204 546.667 245.1 546.835 244.972C547.003 244.844 547.143 244.7 547.255 244.54C547.375 244.38 547.459 244.216 547.507 244.048L547.459 244.024C547.419 244.048 547.371 244.068 547.315 244.084C547.267 244.1 547.195 244.108 547.099 244.108C546.987 244.108 546.871 244.076 546.751 244.012C546.639 243.956 546.543 243.868 546.463 243.748C546.383 243.628 546.343 243.472 546.343 243.28C546.343 243.104 546.383 242.948 546.463 242.812C546.551 242.676 546.663 242.572 546.799 242.5C546.935 242.42 547.087 242.38 547.255 242.38ZM517.008 258V257.064C517.768 256.52 518.404 256.04 518.916 255.624C519.436 255.208 519.852 254.824 520.164 254.472C520.476 254.12 520.7 253.788 520.836 253.476C520.98 253.156 521.052 252.832 521.052 252.504C521.052 252.08 520.92 251.736 520.656 251.472C520.392 251.208 520.024 251.076 519.552 251.076C519.056 251.076 518.66 251.244 518.364 251.58C518.076 251.908 517.912 252.36 517.872 252.936L516.756 252.42C516.812 251.916 516.96 251.48 517.2 251.112C517.44 250.744 517.764 250.46 518.172 250.26C518.588 250.06 519.068 249.96 519.612 249.96C520.06 249.96 520.452 250.024 520.788 250.152C521.132 250.28 521.42 250.46 521.652 250.692C521.884 250.916 522.06 251.18 522.18 251.484C522.308 251.788 522.372 252.112 522.372 252.456C522.372 252.96 522.248 253.448 522 253.92C521.752 254.384 521.36 254.86 520.824 255.348C520.288 255.836 519.584 256.36 518.712 256.92V256.944C518.808 256.928 518.94 256.92 519.108 256.92C519.276 256.912 519.444 256.908 519.612 256.908C519.78 256.9 519.916 256.896 520.02 256.896H522.516V258H517.008ZM526.979 258.12C526.027 258.12 525.279 257.776 524.735 257.088C524.199 256.392 523.931 255.376 523.931 254.04C523.931 252.704 524.199 251.692 524.735 251.004C525.279 250.308 526.027 249.96 526.979 249.96C527.939 249.96 528.687 250.308 529.223 251.004C529.767 251.692 530.039 252.704 530.039 254.04C530.039 255.376 529.767 256.392 529.223 257.088C528.687 257.776 527.939 258.12 526.979 258.12ZM526.979 257.028C527.363 257.028 527.683 256.92 527.939 256.704C528.203 256.48 528.399 256.148 528.527 255.708C528.663 255.26 528.731 254.704 528.731 254.04C528.731 253.376 528.663 252.824 528.527 252.384C528.399 251.936 528.203 251.604 527.939 251.388C527.683 251.164 527.363 251.052 526.979 251.052C526.595 251.052 526.271 251.164 526.007 251.388C525.751 251.604 525.559 251.936 525.431 252.384C525.303 252.824 525.239 253.376 525.239 254.04C525.239 254.704 525.303 255.26 525.431 255.708C525.559 256.148 525.751 256.48 526.007 256.704C526.271 256.92 526.595 257.028 526.979 257.028ZM531.586 258V257.064C532.346 256.52 532.982 256.04 533.494 255.624C534.014 255.208 534.43 254.824 534.742 254.472C535.054 254.12 535.278 253.788 535.414 253.476C535.558 253.156 535.63 252.832 535.63 252.504C535.63 252.08 535.498 251.736 535.234 251.472C534.97 251.208 534.602 251.076 534.13 251.076C533.634 251.076 533.238 251.244 532.942 251.58C532.654 251.908 532.49 252.36 532.45 252.936L531.334 252.42C531.39 251.916 531.538 251.48 531.778 251.112C532.018 250.744 532.342 250.46 532.75 250.26C533.166 250.06 533.646 249.96 534.19 249.96C534.638 249.96 535.03 250.024 535.366 250.152C535.71 250.28 535.998 250.46 536.23 250.692C536.462 250.916 536.638 251.18 536.758 251.484C536.886 251.788 536.95 252.112 536.95 252.456C536.95 252.96 536.826 253.448 536.578 253.92C536.33 254.384 535.938 254.86 535.402 255.348C534.866 255.836 534.162 256.36 533.29 256.92V256.944C533.386 256.928 533.518 256.92 533.686 256.92C533.854 256.912 534.022 256.908 534.19 256.908C534.358 256.9 534.494 256.896 534.598 256.896H537.094V258H531.586ZM538.629 258V257.064C539.389 256.52 540.025 256.04 540.537 255.624C541.057 255.208 541.473 254.824 541.785 254.472C542.097 254.12 542.321 253.788 542.457 253.476C542.601 253.156 542.673 252.832 542.673 252.504C542.673 252.08 542.541 251.736 542.277 251.472C542.013 251.208 541.645 251.076 541.173 251.076C540.677 251.076 540.281 251.244 539.985 251.58C539.697 251.908 539.533 252.36 539.493 252.936L538.377 252.42C538.433 251.916 538.581 251.48 538.821 251.112C539.061 250.744 539.385 250.46 539.793 250.26C540.209 250.06 540.689 249.96 541.233 249.96C541.681 249.96 542.073 250.024 542.409 250.152C542.753 250.28 543.041 250.46 543.273 250.692C543.505 250.916 543.681 251.18 543.801 251.484C543.929 251.788 543.993 252.112 543.993 252.456C543.993 252.96 543.869 253.448 543.621 253.92C543.373 254.384 542.981 254.86 542.445 255.348C541.909 255.836 541.205 256.36 540.333 256.92V256.944C540.429 256.928 540.561 256.92 540.729 256.92C540.897 256.912 541.065 256.908 541.233 256.908C541.401 256.9 541.537 256.896 541.641 256.896H544.137V258H538.629Z" fill="#C4C4C4"/>
<path d="M29 158.868L160.943 158.058C160.943 158.058 238.323 155.899 273.376 154.877C308.428 153.855 311.1 157.243 335.544 158.058C381.799 159.6 408.288 159.432 454.591 158.058C481.224 157.267 495.653 155.155 522.381 154.877C546.183 154.629 559.485 155.597 583.227 156.207C622.681 157.221 664.796 161.509 684.086 159.446C703.376 157.383 722.662 153.438 748.569 154.067C760.307 154.352 770.394 155.764 778 156.207" stroke="#5B4EE6" stroke-width="3"/>
<path d="M778 118L778 226" stroke="#5B4EE6" stroke-width="2" stroke-linejoin="round" stroke-dasharray="5 5"/>
<g filter="url(#filter0_d_517_802)">
<path fill-rule="evenodd" clip-rule="evenodd" d="M700 0C693.373 0 688 5.37258 688 12V88C688 94.6274 693.373 100 700 100H770L778 115L786 100H856C862.627 100 868 94.6274 868 88V12C868 5.37258 862.627 0 856 0H700Z" fill="#25252E"/>
</g>
<path d="M774.474 31H772.892L772.01 28.578H768.132L767.25 31H765.71L769.196 21.76H770.988L774.474 31ZM768.552 27.36H771.59L770.078 23.048L768.552 27.36ZM779.668 21.76C780.331 21.76 780.9 21.8767 781.376 22.11C781.862 22.3433 782.24 22.6747 782.51 23.104C782.781 23.5333 782.916 24.0513 782.916 24.658C782.916 25.2553 782.781 25.7733 782.51 26.212C782.24 26.6413 781.862 26.9727 781.376 27.206C780.9 27.4393 780.331 27.556 779.668 27.556H777.61V31H776.112V21.76H779.668ZM779.43 26.268C780.093 26.268 780.578 26.1327 780.886 25.862C781.204 25.582 781.362 25.1807 781.362 24.658C781.362 24.126 781.204 23.7247 780.886 23.454C780.578 23.174 780.093 23.034 779.43 23.034H777.61V26.268H779.43ZM791.449 21.76L788.145 27.458V31H786.647V27.458L783.357 21.76H785.023L786.675 24.742L787.403 26.114L788.131 24.742L789.769 21.76H791.449Z" fill="#C4C4C4"/>
<path d="M754 14H803V12H754V14ZM803 38H754V40H803V38ZM754 38C747.373 38 742 32.6274 742 26H740C740 33.732 746.268 40 754 40V38ZM815 26C815 32.6274 809.627 38 803 38V40C810.732 40 817 33.732 817 26H815ZM803 14C809.627 14 815 19.3726 815 26H817C817 18.268 810.732 12 803 12V14ZM754 12C746.268 12 740 18.268 740 26H742C742 19.3726 747.373 14 754 14V12Z" fill="#777777"/>
<path d="M729.492 78V62.952C729.492 62.4 729.492 61.836 729.492 61.26C729.516 60.66 729.54 60.048 729.564 59.424C728.748 60.168 727.836 60.816 726.828 61.368C725.82 61.92 724.788 62.304 723.732 62.52L723.084 58.344C723.636 58.296 724.248 58.14 724.92 57.876C725.616 57.588 726.312 57.252 727.008 56.868C727.728 56.46 728.376 56.04 728.952 55.608C729.552 55.152 730.008 54.696 730.32 54.24H734.352V78H729.492ZM747.961 53.88C750.073 53.88 751.849 54.372 753.289 55.356C754.729 56.316 755.809 57.708 756.529 59.532C757.273 61.332 757.645 63.504 757.645 66.048C757.645 68.856 757.249 71.172 756.457 72.996C755.665 74.796 754.537 76.14 753.073 77.028C751.633 77.916 749.941 78.36 747.997 78.36C745.957 78.36 744.193 77.928 742.705 77.064C741.241 76.2 740.137 74.88 739.393 73.104L743.965 71.16C744.229 72.144 744.685 72.936 745.333 73.536C746.005 74.112 746.929 74.4 748.105 74.4C749.041 74.4 749.833 74.22 750.481 73.86C751.129 73.476 751.645 72.936 752.029 72.24C752.437 71.544 752.725 70.692 752.893 69.684C753.085 68.676 753.181 67.548 753.181 66.3C753.181 66.204 753.181 66.12 753.181 66.048C753.181 65.976 753.181 65.892 753.181 65.796H753.037C752.773 66.636 752.317 67.332 751.669 67.884C751.045 68.412 750.325 68.808 749.509 69.072C748.693 69.312 747.853 69.432 746.989 69.432C745.477 69.432 744.133 69.132 742.957 68.532C741.805 67.908 740.893 67.044 740.221 65.94C739.549 64.812 739.213 63.504 739.213 62.016C739.213 60.336 739.573 58.896 740.293 57.696C741.013 56.472 742.021 55.536 743.317 54.888C744.637 54.216 746.185 53.88 747.961 53.88ZM747.997 57.912C746.725 57.912 745.729 58.272 745.009 58.992C744.289 59.688 743.929 60.672 743.929 61.944C743.929 63.072 744.301 63.96 745.045 64.608C745.789 65.232 746.773 65.544 747.997 65.544C748.789 65.544 749.485 65.388 750.085 65.076C750.709 64.764 751.189 64.32 751.525 63.744C751.861 63.168 752.029 62.508 752.029 61.764C752.029 60.972 751.861 60.288 751.525 59.712C751.189 59.136 750.709 58.692 750.085 58.38C749.485 58.068 748.789 57.912 747.997 57.912ZM764.355 72.492C765.315 72.492 766.071 72.756 766.623 73.284C767.199 73.812 767.487 74.52 767.487 75.408C767.487 76.32 767.199 77.04 766.623 77.568C766.071 78.072 765.315 78.324 764.355 78.324C763.395 78.324 762.627 78.072 762.051 77.568C761.499 77.04 761.223 76.32 761.223 75.408C761.223 74.52 761.499 73.812 762.051 73.284C762.627 72.756 763.395 72.492 764.355 72.492ZM780.096 78.36C777.72 78.36 775.692 77.868 774.012 76.884C772.356 75.876 771.216 74.436 770.592 72.564L775.272 70.512C775.44 71.376 775.716 72.096 776.1 72.672C776.484 73.224 777 73.644 777.648 73.932C778.32 74.22 779.112 74.364 780.024 74.364C780.84 74.364 781.524 74.22 782.076 73.932C782.652 73.644 783.096 73.236 783.408 72.708C783.72 72.18 783.876 71.58 783.876 70.908C783.876 70.188 783.732 69.6 783.444 69.144C783.18 68.688 782.772 68.364 782.22 68.172C781.668 67.956 780.972 67.848 780.132 67.848C779.82 67.848 779.52 67.86 779.232 67.884C778.968 67.884 778.668 67.908 778.332 67.956V64.32C778.524 64.344 778.716 64.368 778.908 64.392C779.124 64.392 779.34 64.392 779.556 64.392C780.9 64.392 781.86 64.128 782.436 63.6C783.036 63.048 783.336 62.172 783.336 60.972C783.336 59.988 783.036 59.232 782.436 58.704C781.86 58.152 781.032 57.876 779.952 57.876C778.8 57.876 777.888 58.164 777.216 58.74C776.544 59.292 776.076 60.144 775.812 61.296L771.384 59.64C771.672 58.44 772.224 57.408 773.04 56.544C773.88 55.68 774.912 55.02 776.136 54.564C777.36 54.084 778.716 53.844 780.204 53.844C781.98 53.844 783.456 54.12 784.632 54.672C785.832 55.224 786.732 55.98 787.332 56.94C787.956 57.9 788.268 59.004 788.268 60.252C788.268 61.236 788.112 62.076 787.8 62.772C787.512 63.444 787.128 64.02 786.648 64.5C786.192 64.956 785.712 65.304 785.208 65.544C784.704 65.784 784.236 65.928 783.804 65.976V66.084C784.356 66.108 784.92 66.228 785.496 66.444C786.072 66.636 786.6 66.936 787.08 67.344C787.584 67.752 787.992 68.28 788.304 68.928C788.616 69.552 788.772 70.296 788.772 71.16C788.772 72.6 788.388 73.872 787.62 74.976C786.876 76.056 785.856 76.896 784.56 77.496C783.264 78.072 781.776 78.36 780.096 78.36ZM801.296 78.36C798.92 78.36 796.892 77.868 795.212 76.884C793.556 75.876 792.416 74.436 791.792 72.564L796.472 70.512C796.64 71.376 796.916 72.096 797.3 72.672C797.684 73.224 798.2 73.644 798.848 73.932C799.52 74.22 800.312 74.364 801.224 74.364C802.04 74.364 802.724 74.22 803.276 73.932C803.852 73.644 804.296 73.236 804.608 72.708C804.92 72.18 805.076 71.58 805.076 70.908C805.076 70.188 804.932 69.6 804.644 69.144C804.38 68.688 803.972 68.364 803.42 68.172C802.868 67.956 802.172 67.848 801.332 67.848C801.02 67.848 800.72 67.86 800.432 67.884C800.168 67.884 799.868 67.908 799.532 67.956V64.32C799.724 64.344 799.916 64.368 800.108 64.392C800.324 64.392 800.54 64.392 800.756 64.392C802.1 64.392 803.06 64.128 803.636 63.6C804.236 63.048 804.536 62.172 804.536 60.972C804.536 59.988 804.236 59.232 803.636 58.704C803.06 58.152 802.232 57.876 801.152 57.876C800 57.876 799.088 58.164 798.416 58.74C797.744 59.292 797.276 60.144 797.012 61.296L792.584 59.64C792.872 58.44 793.424 57.408 794.24 56.544C795.08 55.68 796.112 55.02 797.336 54.564C798.56 54.084 799.916 53.844 801.404 53.844C803.18 53.844 804.656 54.12 805.832 54.672C807.032 55.224 807.932 55.98 808.532 56.94C809.156 57.9 809.468 59.004 809.468 60.252C809.468 61.236 809.312 62.076 809 62.772C808.712 63.444 808.328 64.02 807.848 64.5C807.392 64.956 806.912 65.304 806.408 65.544C805.904 65.784 805.436 65.928 805.004 65.976V66.084C805.556 66.108 806.12 66.228 806.696 66.444C807.272 66.636 807.8 66.936 808.28 67.344C808.784 67.752 809.192 68.28 809.504 68.928C809.816 69.552 809.972 70.296 809.972 71.16C809.972 72.6 809.588 73.872 808.82 74.976C808.076 76.056 807.056 76.896 805.76 77.496C804.464 78.072 802.976 78.36 801.296 78.36ZM816.051 78L826.731 62.16H829.371L818.691 78H816.051ZM816.843 61.92C817.707 61.92 818.451 62.104 819.075 62.472C819.715 62.84 820.203 63.36 820.539 64.032C820.891 64.704 821.067 65.488 821.067 66.384C821.067 67.28 820.891 68.064 820.539 68.736C820.203 69.392 819.715 69.912 819.075 70.296C818.451 70.664 817.707 70.848 816.843 70.848C815.995 70.848 815.251 70.664 814.611 70.296C813.971 69.912 813.475 69.392 813.123 68.736C812.787 68.064 812.619 67.28 812.619 66.384C812.619 65.488 812.787 64.704 813.123 64.032C813.475 63.36 813.971 62.84 814.611 62.472C815.251 62.104 815.995 61.92 816.843 61.92ZM816.843 64.2C816.491 64.2 816.187 64.288 815.931 64.464C815.675 64.624 815.483 64.872 815.355 65.208C815.227 65.528 815.163 65.92 815.163 66.384C815.163 66.832 815.227 67.224 815.355 67.56C815.483 67.88 815.675 68.128 815.931 68.304C816.187 68.464 816.491 68.544 816.843 68.544C817.211 68.544 817.515 68.464 817.755 68.304C818.011 68.128 818.203 67.88 818.331 67.56C818.459 67.224 818.523 66.832 818.523 66.384C818.523 65.92 818.459 65.528 818.331 65.208C818.203 64.872 818.011 64.624 817.755 64.464C817.515 64.288 817.211 64.2 816.843 64.2ZM828.555 69.312C829.403 69.312 830.139 69.504 830.763 69.888C831.403 70.256 831.899 70.776 832.251 71.448C832.603 72.104 832.779 72.88 832.779 73.776C832.779 74.672 832.603 75.456 832.251 76.128C831.899 76.8 831.403 77.32 830.763 77.688C830.139 78.056 829.403 78.24 828.555 78.24C827.707 78.24 826.963 78.056 826.323 77.688C825.683 77.32 825.187 76.8 824.835 76.128C824.499 75.456 824.331 74.672 824.331 73.776C824.331 72.88 824.499 72.104 824.835 71.448C825.187 70.776 825.683 70.256 826.323 69.888C826.963 69.504 827.707 69.312 828.555 69.312ZM828.555 71.616C828.187 71.616 827.875 71.704 827.619 71.88C827.379 72.04 827.195 72.28 827.067 72.6C826.939 72.92 826.875 73.312 826.875 73.776C826.875 74.224 826.939 74.616 827.067 74.952C827.195 75.288 827.379 75.544 827.619 75.72C827.875 75.88 828.187 75.96 828.555 75.96C828.923 75.96 829.227 75.88 829.467 75.72C829.723 75.544 829.915 75.288 830.043 74.952C830.171 74.616 830.235 74.224 830.235 73.776C830.235 73.312 830.171 72.92 830.043 72.6C829.915 72.28 829.723 72.04 829.467 71.88C829.227 71.704 828.923 71.616 828.555 71.616Z" fill="white"/>
<g filter="url(#filter1_d_517_802)">
<circle cx="778" cy="156" r="5" fill="#5B4EE6"/>
</g>
<path d="M29 25L29 217.5" stroke="#E5E5E5"/>
<path d="M1.86261 161V160.22C2.65461 159.636 3.31461 159.124 3.84261 158.684C4.37861 158.244 4.80661 157.844 5.12661 157.484C5.44661 157.124 5.67461 156.784 5.81061 156.464C5.94661 156.136 6.01461 155.796 6.01461 155.444C6.01461 154.972 5.86261 154.592 5.55861 154.304C5.26261 154.008 4.85461 153.86 4.33461 153.86C3.79061 153.86 3.35461 154.04 3.02661 154.4C2.69861 154.752 2.50661 155.224 2.45061 155.816L1.61061 155.312C1.68261 154.848 1.83061 154.44 2.05461 154.088C2.28661 153.736 2.59461 153.46 2.97861 153.26C3.37061 153.06 3.83461 152.96 4.37061 152.96C4.77861 152.96 5.14261 153.02 5.46261 153.14C5.79061 153.26 6.07061 153.432 6.30261 153.656C6.53461 153.872 6.71061 154.132 6.83061 154.436C6.95861 154.74 7.02261 155.076 7.02261 155.444C7.02261 155.94 6.90261 156.428 6.66261 156.908C6.42261 157.38 6.02661 157.876 5.47461 158.396C4.92261 158.916 4.17461 159.492 3.23061 160.124V160.136C3.31861 160.128 3.43861 160.124 3.59061 160.124C3.75061 160.116 3.90661 160.112 4.05861 160.112C4.21861 160.104 4.33861 160.1 4.41861 160.1H7.19061V161H1.86261ZM11.7027 161.12C10.8067 161.12 10.0907 160.772 9.5547 160.076C9.0187 159.38 8.7507 158.368 8.7507 157.04C8.7507 155.712 9.0187 154.7 9.5547 154.004C10.0907 153.308 10.8067 152.96 11.7027 152.96C12.6067 152.96 13.3227 153.308 13.8507 154.004C14.3867 154.7 14.6547 155.712 14.6547 157.04C14.6547 158.368 14.3867 159.38 13.8507 160.076C13.3227 160.772 12.6067 161.12 11.7027 161.12ZM11.7027 160.256C12.1267 160.256 12.4827 160.136 12.7707 159.896C13.0667 159.648 13.2867 159.284 13.4307 158.804C13.5827 158.324 13.6587 157.736 13.6587 157.04C13.6587 156.344 13.5827 155.756 13.4307 155.276C13.2867 154.796 13.0667 154.436 12.7707 154.196C12.4827 153.948 12.1267 153.824 11.7027 153.824C11.2787 153.824 10.9187 153.948 10.6227 154.196C10.3347 154.436 10.1147 154.796 9.9627 155.276C9.8187 155.756 9.7467 156.344 9.7467 157.04C9.7467 157.736 9.8187 158.324 9.9627 158.804C10.1147 159.284 10.3347 159.648 10.6227 159.896C10.9187 160.136 11.2787 160.256 11.7027 160.256ZM17.2355 161L21.4355 154.4H22.1955L17.9955 161H17.2355ZM17.4255 154.3C17.7522 154.3 18.0322 154.377 18.2655 154.53C18.5055 154.677 18.6889 154.887 18.8155 155.16C18.9489 155.433 19.0155 155.753 19.0155 156.12C19.0155 156.487 18.9489 156.807 18.8155 157.08C18.6889 157.353 18.5055 157.567 18.2655 157.72C18.0322 157.867 17.7522 157.94 17.4255 157.94C17.1055 157.94 16.8255 157.867 16.5855 157.72C16.3455 157.567 16.1589 157.353 16.0255 157.08C15.8989 156.807 15.8355 156.487 15.8355 156.12C15.8355 155.753 15.8989 155.433 16.0255 155.16C16.1589 154.887 16.3455 154.677 16.5855 154.53C16.8255 154.377 17.1055 154.3 17.4255 154.3ZM17.4255 154.93C17.2389 154.93 17.0789 154.977 16.9455 155.07C16.8122 155.163 16.7122 155.3 16.6455 155.48C16.5789 155.653 16.5455 155.867 16.5455 156.12C16.5455 156.367 16.5789 156.58 16.6455 156.76C16.7122 156.94 16.8122 157.077 16.9455 157.17C17.0789 157.263 17.2389 157.31 17.4255 157.31C17.6189 157.31 17.7789 157.263 17.9055 157.17C18.0389 157.077 18.1389 156.94 18.2055 156.76C18.2722 156.58 18.3055 156.367 18.3055 156.12C18.3055 155.867 18.2722 155.653 18.2055 155.48C18.1389 155.3 18.0389 155.163 17.9055 155.07C17.7789 154.977 17.6189 154.93 17.4255 154.93ZM22.0055 157.46C22.3322 157.46 22.6122 157.537 22.8455 157.69C23.0855 157.837 23.2689 158.047 23.3955 158.32C23.5289 158.593 23.5955 158.913 23.5955 159.28C23.5955 159.647 23.5289 159.967 23.3955 160.24C23.2689 160.513 23.0855 160.727 22.8455 160.88C22.6122 161.027 22.3322 161.1 22.0055 161.1C21.6855 161.1 21.4055 161.027 21.1655 160.88C20.9255 160.727 20.7389 160.513 20.6055 160.24C20.4789 159.967 20.4155 159.647 20.4155 159.28C20.4155 158.913 20.4789 158.593 20.6055 158.32C20.7389 158.047 20.9255 157.837 21.1655 157.69C21.4055 157.537 21.6855 157.46 22.0055 157.46ZM22.0055 158.09C21.8189 158.09 21.6589 158.137 21.5255 158.23C21.3922 158.323 21.2922 158.46 21.2255 158.64C21.1589 158.813 21.1255 159.027 21.1255 159.28C21.1255 159.527 21.1589 159.74 21.2255 159.92C21.2922 160.1 21.3922 160.237 21.5255 160.33C21.6589 160.423 21.8189 160.47 22.0055 160.47C22.1989 160.47 22.3589 160.423 22.4855 160.33C22.6189 160.237 22.7189 160.1 22.7855 159.92C22.8522 159.74 22.8855 159.527 22.8855 159.28C22.8855 159.027 22.8522 158.813 22.7855 158.64C22.7189 158.46 22.6189 158.323 22.4855 158.23C22.3589 158.137 22.1989 158.09 22.0055 158.09Z" fill="#E5E5E5"/>
<path d="M11.7027 221.12C10.8067 221.12 10.0907 220.772 9.5547 220.076C9.0187 219.38 8.7507 218.368 8.7507 217.04C8.7507 215.712 9.0187 214.7 9.5547 214.004C10.0907 213.308 10.8067 212.96 11.7027 212.96C12.6067 212.96 13.3227 213.308 13.8507 214.004C14.3867 214.7 14.6547 215.712 14.6547 217.04C14.6547 218.368 14.3867 219.38 13.8507 220.076C13.3227 220.772 12.6067 221.12 11.7027 221.12ZM11.7027 220.256C12.1267 220.256 12.4827 220.136 12.7707 219.896C13.0667 219.648 13.2867 219.284 13.4307 218.804C13.5827 218.324 13.6587 217.736 13.6587 217.04C13.6587 216.344 13.5827 215.756 13.4307 215.276C13.2867 214.796 13.0667 214.436 12.7707 214.196C12.4827 213.948 12.1267 213.824 11.7027 213.824C11.2787 213.824 10.9187 213.948 10.6227 214.196C10.3347 214.436 10.1147 214.796 9.9627 215.276C9.8187 215.756 9.7467 216.344 9.7467 217.04C9.7467 217.736 9.8187 218.324 9.9627 218.804C10.1147 219.284 10.3347 219.648 10.6227 219.896C10.9187 220.136 11.2787 220.256 11.7027 220.256ZM17.2355 221L21.4355 214.4H22.1955L17.9955 221H17.2355ZM17.4255 214.3C17.7522 214.3 18.0322 214.377 18.2655 214.53C18.5055 214.677 18.6889 214.887 18.8155 215.16C18.9489 215.433 19.0155 215.753 19.0155 216.12C19.0155 216.487 18.9489 216.807 18.8155 217.08C18.6889 217.353 18.5055 217.567 18.2655 217.72C18.0322 217.867 17.7522 217.94 17.4255 217.94C17.1055 217.94 16.8255 217.867 16.5855 217.72C16.3455 217.567 16.1589 217.353 16.0255 217.08C15.8989 216.807 15.8355 216.487 15.8355 216.12C15.8355 215.753 15.8989 215.433 16.0255 215.16C16.1589 214.887 16.3455 214.677 16.5855 214.53C16.8255 214.377 17.1055 214.3 17.4255 214.3ZM17.4255 214.93C17.2389 214.93 17.0789 214.977 16.9455 215.07C16.8122 215.163 16.7122 215.3 16.6455 215.48C16.5789 215.653 16.5455 215.867 16.5455 216.12C16.5455 216.367 16.5789 216.58 16.6455 216.76C16.7122 216.94 16.8122 217.077 16.9455 217.17C17.0789 217.263 17.2389 217.31 17.4255 217.31C17.6189 217.31 17.7789 217.263 17.9055 217.17C18.0389 217.077 18.1389 216.94 18.2055 216.76C18.2722 216.58 18.3055 216.367 18.3055 216.12C18.3055 215.867 18.2722 215.653 18.2055 215.48C18.1389 215.3 18.0389 215.163 17.9055 215.07C17.7789 214.977 17.6189 214.93 17.4255 214.93ZM22.0055 217.46C22.3322 217.46 22.6122 217.537 22.8455 217.69C23.0855 217.837 23.2689 218.047 23.3955 218.32C23.5289 218.593 23.5955 218.913 23.5955 219.28C23.5955 219.647 23.5289 219.967 23.3955 220.24C23.2689 220.513 23.0855 220.727 22.8455 220.88C22.6122 221.027 22.3322 221.1 22.0055 221.1C21.6855 221.1 21.4055 221.027 21.1655 220.88C20.9255 220.727 20.7389 220.513 20.6055 220.24C20.4789 219.967 20.4155 219.647 20.4155 219.28C20.4155 218.913 20.4789 218.593 20.6055 218.32C20.7389 218.047 20.9255 217.837 21.1655 217.69C21.4055 217.537 21.6855 217.46 22.0055 217.46ZM22.0055 218.09C21.8189 218.09 21.6589 218.137 21.5255 218.23C21.3922 218.323 21.2922 218.46 21.2255 218.64C21.1589 218.813 21.1255 219.027 21.1255 219.28C21.1255 219.527 21.1589 219.74 21.2255 219.92C21.2922 220.1 21.3922 220.237 21.5255 220.33C21.6589 220.423 21.8189 220.47 22.0055 220.47C22.1989 220.47 22.3589 220.423 22.4855 220.33C22.6189 220.237 22.7189 220.1 22.7855 219.92C22.8522 219.74 22.8855 219.527 22.8855 219.28C22.8855 219.027 22.8522 218.813 22.7855 218.64C22.7189 218.46 22.6189 218.323 22.4855 218.23C22.3589 218.137 22.1989 218.09 22.0055 218.09Z" fill="#E5E5E5"/>
<path d="M5.02677 101V98.924H1.16277V98.216L4.77477 93.08H5.98677V98.096H7.39077V98.924H5.98677V101H5.02677ZM2.18277 98.096H5.02677V95.132C5.02677 94.924 5.03077 94.712 5.03877 94.496C5.05477 94.28 5.06677 94.068 5.07477 93.86H5.05077C4.95477 94.06 4.83077 94.284 4.67877 94.532C4.52677 94.78 4.38677 94.996 4.25877 95.18L2.18277 98.096ZM11.7027 101.12C10.8067 101.12 10.0907 100.772 9.5547 100.076C9.0187 99.38 8.7507 98.368 8.7507 97.04C8.7507 95.712 9.0187 94.7 9.5547 94.004C10.0907 93.308 10.8067 92.96 11.7027 92.96C12.6067 92.96 13.3227 93.308 13.8507 94.004C14.3867 94.7 14.6547 95.712 14.6547 97.04C14.6547 98.368 14.3867 99.38 13.8507 100.076C13.3227 100.772 12.6067 101.12 11.7027 101.12ZM11.7027 100.256C12.1267 100.256 12.4827 100.136 12.7707 99.896C13.0667 99.648 13.2867 99.284 13.4307 98.804C13.5827 98.324 13.6587 97.736 13.6587 97.04C13.6587 96.344 13.5827 95.756 13.4307 95.276C13.2867 94.796 13.0667 94.436 12.7707 94.196C12.4827 93.948 12.1267 93.824 11.7027 93.824C11.2787 93.824 10.9187 93.948 10.6227 94.196C10.3347 94.436 10.1147 94.796 9.9627 95.276C9.8187 95.756 9.7467 96.344 9.7467 97.04C9.7467 97.736 9.8187 98.324 9.9627 98.804C10.1147 99.284 10.3347 99.648 10.6227 99.896C10.9187 100.136 11.2787 100.256 11.7027 100.256ZM17.2355 101L21.4355 94.4H22.1955L17.9955 101H17.2355ZM17.4255 94.3C17.7522 94.3 18.0322 94.3767 18.2655 94.53C18.5055 94.6767 18.6889 94.8867 18.8155 95.16C18.9489 95.4333 19.0155 95.7533 19.0155 96.12C19.0155 96.4867 18.9489 96.8067 18.8155 97.08C18.6889 97.3533 18.5055 97.5667 18.2655 97.72C18.0322 97.8667 17.7522 97.94 17.4255 97.94C17.1055 97.94 16.8255 97.8667 16.5855 97.72C16.3455 97.5667 16.1589 97.3533 16.0255 97.08C15.8989 96.8067 15.8355 96.4867 15.8355 96.12C15.8355 95.7533 15.8989 95.4333 16.0255 95.16C16.1589 94.8867 16.3455 94.6767 16.5855 94.53C16.8255 94.3767 17.1055 94.3 17.4255 94.3ZM17.4255 94.93C17.2389 94.93 17.0789 94.9767 16.9455 95.07C16.8122 95.1633 16.7122 95.3 16.6455 95.48C16.5789 95.6533 16.5455 95.8667 16.5455 96.12C16.5455 96.3667 16.5789 96.58 16.6455 96.76C16.7122 96.94 16.8122 97.0767 16.9455 97.17C17.0789 97.2633 17.2389 97.31 17.4255 97.31C17.6189 97.31 17.7789 97.2633 17.9055 97.17C18.0389 97.0767 18.1389 96.94 18.2055 96.76C18.2722 96.58 18.3055 96.3667 18.3055 96.12C18.3055 95.8667 18.2722 95.6533 18.2055 95.48C18.1389 95.3 18.0389 95.1633 17.9055 95.07C17.7789 94.9767 17.6189 94.93 17.4255 94.93ZM22.0055 97.46C22.3322 97.46 22.6122 97.5367 22.8455 97.69C23.0855 97.8367 23.2689 98.0467 23.3955 98.32C23.5289 98.5933 23.5955 98.9133 23.5955 99.28C23.5955 99.6467 23.5289 99.9667 23.3955 100.24C23.2689 100.513 23.0855 100.727 22.8455 100.88C22.6122 101.027 22.3322 101.1 22.0055 101.1C21.6855 101.1 21.4055 101.027 21.1655 100.88C20.9255 100.727 20.7389 100.513 20.6055 100.24C20.4789 99.9667 20.4155 99.6467 20.4155 99.28C20.4155 98.9133 20.4789 98.5933 20.6055 98.32C20.7389 98.0467 20.9255 97.8367 21.1655 97.69C21.4055 97.5367 21.6855 97.46 22.0055 97.46ZM22.0055 98.09C21.8189 98.09 21.6589 98.1367 21.5255 98.23C21.3922 98.3233 21.2922 98.46 21.2255 98.64C21.1589 98.8133 21.1255 99.0267 21.1255 99.28C21.1255 99.5267 21.1589 99.74 21.2255 99.92C21.2922 100.1 21.3922 100.237 21.5255 100.33C21.6589 100.423 21.8189 100.47 22.0055 100.47C22.1989 100.47 22.3589 100.423 22.4855 100.33C22.6189 100.237 22.7189 100.1 22.7855 99.92C22.8522 99.74 22.8855 99.5267 22.8855 99.28C22.8855 99.0267 22.8522 98.8133 22.7855 98.64C22.7189 98.46 22.6189 98.3233 22.4855 98.23C22.3589 98.1367 22.1989 98.09 22.0055 98.09Z" fill="#E5E5E5"/>
<path d="M4.54592 32.96C4.96992 32.96 5.33792 33.02 5.64992 33.14C5.96992 33.252 6.24592 33.432 6.47792 33.68C6.70992 33.92 6.90592 34.236 7.06592 34.628L6.17792 35.048C6.05792 34.68 5.86192 34.392 5.58992 34.184C5.32592 33.968 4.95792 33.86 4.48592 33.86C4.14192 33.86 3.83792 33.948 3.57392 34.124C3.30992 34.292 3.08592 34.528 2.90192 34.832C2.71792 35.136 2.57792 35.492 2.48192 35.9C2.39392 36.308 2.34992 36.748 2.34992 37.22C2.34992 37.236 2.34992 37.26 2.34992 37.292C2.34992 37.324 2.34992 37.372 2.34992 37.436H2.39792C2.48592 37.092 2.64592 36.816 2.87792 36.608C3.11792 36.392 3.38592 36.236 3.68192 36.14C3.98592 36.036 4.28192 35.984 4.56992 35.984C5.10592 35.984 5.57392 36.088 5.97392 36.296C6.37392 36.504 6.68192 36.8 6.89792 37.184C7.12192 37.568 7.23392 38.024 7.23392 38.552C7.23392 39.072 7.12192 39.528 6.89792 39.92C6.67392 40.304 6.35792 40.6 5.94992 40.808C5.54992 41.016 5.06992 41.12 4.50992 41.12C3.84592 41.12 3.28592 40.944 2.82992 40.592C2.37392 40.24 2.02992 39.76 1.79792 39.152C1.56592 38.536 1.44992 37.832 1.44992 37.04C1.44992 36.152 1.58592 35.408 1.85792 34.808C2.12992 34.2 2.49792 33.74 2.96192 33.428C3.43392 33.116 3.96192 32.96 4.54592 32.96ZM4.49792 36.908C4.15392 36.908 3.84992 36.98 3.58592 37.124C3.32992 37.26 3.12992 37.452 2.98592 37.7C2.84192 37.94 2.76992 38.22 2.76992 38.54C2.76992 38.844 2.84592 39.124 2.99792 39.38C3.14992 39.628 3.35392 39.828 3.60992 39.98C3.87392 40.124 4.16992 40.196 4.49792 40.196C5.04192 40.196 5.46592 40.052 5.76992 39.764C6.07392 39.468 6.22592 39.06 6.22592 38.54C6.22592 38.204 6.15792 37.916 6.02192 37.676C5.88592 37.428 5.68992 37.24 5.43392 37.112C5.17792 36.976 4.86592 36.908 4.49792 36.908ZM11.7027 41.12C10.8067 41.12 10.0907 40.772 9.5547 40.076C9.0187 39.38 8.7507 38.368 8.7507 37.04C8.7507 35.712 9.0187 34.7 9.5547 34.004C10.0907 33.308 10.8067 32.96 11.7027 32.96C12.6067 32.96 13.3227 33.308 13.8507 34.004C14.3867 34.7 14.6547 35.712 14.6547 37.04C14.6547 38.368 14.3867 39.38 13.8507 40.076C13.3227 40.772 12.6067 41.12 11.7027 41.12ZM11.7027 40.256C12.1267 40.256 12.4827 40.136 12.7707 39.896C13.0667 39.648 13.2867 39.284 13.4307 38.804C13.5827 38.324 13.6587 37.736 13.6587 37.04C13.6587 36.344 13.5827 35.756 13.4307 35.276C13.2867 34.796 13.0667 34.436 12.7707 34.196C12.4827 33.948 12.1267 33.824 11.7027 33.824C11.2787 33.824 10.9187 33.948 10.6227 34.196C10.3347 34.436 10.1147 34.796 9.9627 35.276C9.8187 35.756 9.7467 36.344 9.7467 37.04C9.7467 37.736 9.8187 38.324 9.9627 38.804C10.1147 39.284 10.3347 39.648 10.6227 39.896C10.9187 40.136 11.2787 40.256 11.7027 40.256ZM17.2355 41L21.4355 34.4H22.1955L17.9955 41H17.2355ZM17.4255 34.3C17.7522 34.3 18.0322 34.3767 18.2655 34.53C18.5055 34.6767 18.6889 34.8867 18.8155 35.16C18.9489 35.4333 19.0155 35.7533 19.0155 36.12C19.0155 36.4867 18.9489 36.8067 18.8155 37.08C18.6889 37.3533 18.5055 37.5667 18.2655 37.72C18.0322 37.8667 17.7522 37.94 17.4255 37.94C17.1055 37.94 16.8255 37.8667 16.5855 37.72C16.3455 37.5667 16.1589 37.3533 16.0255 37.08C15.8989 36.8067 15.8355 36.4867 15.8355 36.12C15.8355 35.7533 15.8989 35.4333 16.0255 35.16C16.1589 34.8867 16.3455 34.6767 16.5855 34.53C16.8255 34.3767 17.1055 34.3 17.4255 34.3ZM17.4255 34.93C17.2389 34.93 17.0789 34.9767 16.9455 35.07C16.8122 35.1633 16.7122 35.3 16.6455 35.48C16.5789 35.6533 16.5455 35.8667 16.5455 36.12C16.5455 36.3667 16.5789 36.58 16.6455 36.76C16.7122 36.94 16.8122 37.0767 16.9455 37.17C17.0789 37.2633 17.2389 37.31 17.4255 37.31C17.6189 37.31 17.7789 37.2633 17.9055 37.17C18.0389 37.0767 18.1389 36.94 18.2055 36.76C18.2722 36.58 18.3055 36.3667 18.3055 36.12C18.3055 35.8667 18.2722 35.6533 18.2055 35.48C18.1389 35.3 18.0389 35.1633 17.9055 35.07C17.7789 34.9767 17.6189 34.93 17.4255 34.93ZM22.0055 37.46C22.3322 37.46 22.6122 37.5367 22.8455 37.69C23.0855 37.8367 23.2689 38.0467 23.3955 38.32C23.5289 38.5933 23.5955 38.9133 23.5955 39.28C23.5955 39.6467 23.5289 39.9667 23.3955 40.24C23.2689 40.5133 23.0855 40.7267 22.8455 40.88C22.6122 41.0267 22.3322 41.1 22.0055 41.1C21.6855 41.1 21.4055 41.0267 21.1655 40.88C20.9255 40.7267 20.7389 40.5133 20.6055 40.24C20.4789 39.9667 20.4155 39.6467 20.4155 39.28C20.4155 38.9133 20.4789 38.5933 20.6055 38.32C20.7389 38.0467 20.9255 37.8367 21.1655 37.69C21.4055 37.5367 21.6855 37.46 22.0055 37.46ZM22.0055 38.09C21.8189 38.09 21.6589 38.1367 21.5255 38.23C21.3922 38.3233 21.2922 38.46 21.2255 38.64C21.1589 38.8133 21.1255 39.0267 21.1255 39.28C21.1255 39.5267 21.1589 39.74 21.2255 39.92C21.2922 40.1 21.3922 40.2367 21.5255 40.33C21.6589 40.4233 21.8189 40.47 22.0055 40.47C22.1989 40.47 22.3589 40.4233 22.4855 40.33C22.6189 40.2367 22.7189 40.1 22.7855 39.92C22.8522 39.74 22.8855 39.5267 22.8855 39.28C22.8855 39.0267 22.8522 38.8133 22.7855 38.64C22.7189 38.46 22.6189 38.3233 22.4855 38.23C22.3589 38.1367 22.1989 38.09 22.0055 38.09Z" fill="#E5E5E5"/>
<defs>
<filter id="filter0_d_517_802" x="684" y="0" width="188" height="123" filterUnits="userSpaceOnUse" color-interpolation-filters="sRGB">
<feFlood flood-opacity="0" result="BackgroundImageFix"/>
<feColorMatrix in="SourceAlpha" type="matrix" values="0 0 0 0 0 0 0 0 0 0 0 0 0 0 0 0 0 0 127 0" result="hardAlpha"/>
<feOffset dy="4"/>
<feGaussianBlur stdDeviation="2"/>
<feComposite in2="hardAlpha" operator="out"/>
<feColorMatrix type="matrix" values="0 0 0 0 0.356863 0 0 0 0 0.305882 0 0 0 0 0.901961 0 0 0 0.25 0"/>
<feBlend mode="normal" in2="BackgroundImageFix" result="effect1_dropShadow_517_802"/>
<feBlend mode="normal" in="SourceGraphic" in2="effect1_dropShadow_517_802" result="shape"/>
</filter>
<filter id="filter1_d_517_802" x="768" y="148" width="20" height="20" filterUnits="userSpaceOnUse" color-interpolation-filters="sRGB">
<feFlood flood-opacity="0" result="BackgroundImageFix"/>
<feColorMatrix in="SourceAlpha" type="matrix" values="0 0 0 0 0 0 0 0 0 0 0 0 0 0 0 0 0 0 127 0" result="hardAlpha"/>
<feOffset dy="2"/>
<feGaussianBlur stdDeviation="2.5"/>
<feComposite in2="hardAlpha" operator="out"/>
<feColorMatrix type="matrix" values="0 0 0 0 0.356863 0 0 0 0 0.305882 0 0 0 0 0.901961 0 0 0 0.25 0"/>
<feBlend mode="normal" in2="BackgroundImageFix" result="effect1_dropShadow_517_802"/>
<feBlend mode="normal" in="SourceGraphic" in2="effect1_dropShadow_517_802" result="shape"/>
</filter>
</defs>
</svg>
