<svg width="100" height="100" viewBox="0 0 100 100" fill="none" xmlns="http://www.w3.org/2000/svg">
<path d="M65.1319 27.7118L54.6806 43.2291C54.5317 43.4526 54.4688 43.7224 54.5035 43.9887C54.5382 44.2549 54.6681 44.4996 54.8693 44.6775C55.0704 44.8554 55.3292 44.9544 55.5977 44.9562C55.8662 44.958 56.1263 44.8626 56.3299 44.6875L66.6181 35.7639C66.6783 35.7099 66.753 35.6747 66.833 35.6625C66.913 35.6503 66.9948 35.6616 67.0684 35.6951C67.1421 35.7286 67.2044 35.7829 67.2477 35.8512C67.291 35.9195 67.3136 35.9989 67.3125 36.0798V64.0173C67.3125 64.1029 67.2861 64.1863 67.237 64.2563C67.1879 64.3264 67.1185 64.3796 67.0381 64.4088C66.9577 64.438 66.8703 64.4418 66.7877 64.4196C66.7051 64.3973 66.6313 64.3503 66.5764 64.2847L35.4792 27.059C34.979 26.4684 34.3562 25.9937 33.654 25.6681C32.9518 25.3425 32.1872 25.1738 31.4132 25.1736H30.3264C28.9137 25.1736 27.559 25.7348 26.5601 26.7336C25.5612 27.7325 25 29.0873 25 30.5V69.8472C25 71.2598 25.5612 72.6146 26.5601 73.6135C27.559 74.6124 28.9137 75.1736 30.3264 75.1736V75.1736C31.2372 75.1738 32.1329 74.9406 32.928 74.4963C33.723 74.052 34.391 73.4113 34.8681 72.6354L45.3194 57.118C45.4683 56.8946 45.5312 56.6247 45.4965 56.3585C45.4618 56.0922 45.3319 55.8475 45.1307 55.6697C44.9295 55.4918 44.6708 55.3928 44.4023 55.391C44.1338 55.3891 43.8737 55.4846 43.6701 55.6597L33.3819 64.5833C33.3216 64.6372 33.247 64.6725 33.167 64.6847C33.087 64.6969 33.0052 64.6855 32.9316 64.652C32.8579 64.6185 32.7956 64.5643 32.7523 64.496C32.709 64.4277 32.6864 64.3482 32.6875 64.2673V36.3229C32.6875 36.2374 32.7139 36.1539 32.763 36.0839C32.8121 36.0138 32.8815 35.9606 32.9619 35.9314C33.0423 35.9022 33.1297 35.8985 33.2123 35.9207C33.2949 35.9429 33.3687 35.99 33.4236 36.0555L64.5174 73.2882C65.0175 73.8788 65.6404 74.3534 66.3425 74.679C67.0447 75.0046 67.8094 75.1734 68.5833 75.1736H69.6701C70.3699 75.174 71.0629 75.0366 71.7095 74.7691C72.3562 74.5017 72.9437 74.1094 73.4387 73.6147C73.9337 73.1201 74.3263 72.5328 74.5942 71.8863C74.8621 71.2399 75 70.547 75 69.8472V30.5C75 29.0873 74.4388 27.7325 73.4399 26.7336C72.441 25.7348 71.0863 25.1736 69.6736 25.1736C68.7628 25.1733 67.8671 25.4065 67.072 25.8509C66.277 26.2952 65.609 26.9359 65.1319 27.7118V27.7118Z" fill="black"/>
</svg>
