<svg width="12" height="14" viewBox="0 0 12 14" fill="none" xmlns="http://www.w3.org/2000/svg">
<path d="M0.75 6.5V3.46353L6 0.838525L11.25 3.46353V6.5C11.25 7.82969 10.6484 9.55384 9.63576 10.9484C8.61543 12.3536 7.31187 13.25 6 13.25C4.68813 13.25 3.38457 12.3536 2.36424 10.9484C1.3516 9.55384 0.75 7.82969 0.75 6.5Z" stroke="#5B4EE6" stroke-width="1.5"/>
<mask id="path-2-inside-1_502_109" fill="white">
<path fill-rule="evenodd" clip-rule="evenodd" d="M11.9772 3L5.97717 0V7H11.9543C11.9694 6.82984 11.9772 6.66287 11.9772 6.5V3ZM2.47955e-05 7C0.267052 10.0033 2.84114 14 5.97717 14V7H2.47955e-05Z"/>
</mask>
<path fill-rule="evenodd" clip-rule="evenodd" d="M11.9772 3L5.97717 0V7H11.9543C11.9694 6.82984 11.9772 6.66287 11.9772 6.5V3ZM2.47955e-05 7C0.267052 10.0033 2.84114 14 5.97717 14V7H2.47955e-05Z" fill="#5B4EE6"/>
<path d="M5.97717 0H4.47717V-2.42705L6.64799 -1.34164L5.97717 0ZM11.9772 3L12.648 1.65836L13.4772 2.07295V3H11.9772ZM11.9543 7L13.4484 7.13284L13.3269 8.5H11.9543V7ZM5.97717 14H7.47717V15.5H5.97717V14ZM2.47955e-05 7L-1.49408 7.13284L-1.63926 5.5H2.47955e-05V7ZM6.64799 -1.34164L12.648 1.65836L11.3064 4.34164L5.30635 1.34164L6.64799 -1.34164ZM4.47717 7V0H7.47717V7H4.47717ZM11.9543 8.5H5.97717V5.5H11.9543V8.5ZM13.4772 6.5C13.4772 6.71012 13.4672 6.92149 13.4484 7.13284L10.4602 6.86716C10.4717 6.73819 10.4772 6.61563 10.4772 6.5H13.4772ZM13.4772 3V6.5H10.4772V3H13.4772ZM5.97717 15.5C3.75405 15.5 1.93808 14.1024 0.728602 12.547C-0.496857 10.9711 -1.33227 8.95271 -1.49408 7.13284L1.49413 6.86716C1.59935 8.05058 2.18449 9.53217 3.09684 10.7054C4.02518 11.8993 5.06426 12.5 5.97717 12.5V15.5ZM7.47717 7V14H4.47717V7H7.47717ZM2.47955e-05 5.5H5.97717V8.5H2.47955e-05V5.5Z" fill="#5B4EE6" mask="url(#path-2-inside-1_502_109)"/>
</svg>
