<svg width="92" height="92" viewBox="0 0 92 92" fill="none" xmlns="http://www.w3.org/2000/svg">
<g filter="url(#filter0_d_502_749)">
<circle cx="46" cy="42" r="36" fill="white"/>
</g>
<path d="M46 66C59.2548 66 70 55.2548 70 42C70 28.7452 59.2548 18 46 18C32.7452 18 22 28.7452 22 42C22 55.2548 32.7452 66 46 66Z" fill="#26A17B"/>
<path d="M48.5583 44.2148V44.2109C48.3923 44.2225 47.5358 44.2727 45.6296 44.2727C44.1055 44.2727 43.0367 44.2302 42.6586 44.2109V44.2148C36.7975 43.9563 32.4258 42.9376 32.4258 41.7145C32.4258 40.4952 36.8013 39.4727 42.6586 39.2142V43.2C43.0406 43.227 44.1403 43.2926 45.6567 43.2926C47.4779 43.2926 48.3885 43.2154 48.5583 43.2V39.218C54.4078 39.4804 58.7679 40.499 58.7679 41.7183C58.7679 42.9376 54.4039 43.9563 48.5583 44.2187V44.2148ZM48.5583 38.8052V35.2399H56.719V29.8032H34.5017V35.2399H42.6624V38.8052C36.0296 39.11 31.0444 40.4219 31.0444 41.9961C31.0444 43.5704 36.0335 44.8823 42.6624 45.191V56.6199H48.5621V45.191C55.1833 44.8862 60.1608 43.5743 60.1608 42C60.1608 40.4296 55.1833 39.1138 48.5621 38.809" fill="white"/>
<defs>
<filter id="filter0_d_502_749" x="0" y="0" width="92" height="92" filterUnits="userSpaceOnUse" color-interpolation-filters="sRGB">
<feFlood flood-opacity="0" result="BackgroundImageFix"/>
<feColorMatrix in="SourceAlpha" type="matrix" values="0 0 0 0 0 0 0 0 0 0 0 0 0 0 0 0 0 0 127 0" result="hardAlpha"/>
<feOffset dy="4"/>
<feGaussianBlur stdDeviation="5"/>
<feComposite in2="hardAlpha" operator="out"/>
<feColorMatrix type="matrix" values="0 0 0 0 0.356863 0 0 0 0 0.305882 0 0 0 0 0.901961 0 0 0 0.25 0"/>
<feBlend mode="normal" in2="BackgroundImageFix" result="effect1_dropShadow_502_749"/>
<feBlend mode="normal" in="SourceGraphic" in2="effect1_dropShadow_502_749" result="shape"/>
</filter>
</defs>
</svg>
