<svg width="18" height="16" viewBox="0 0 18 16" fill="none" xmlns="http://www.w3.org/2000/svg">
<path d="M0.5 3.7785C0.5 3.01787 1.06932 2.37765 1.82474 2.28877L14.8247 0.759361C15.7165 0.654451 16.5 1.3512 16.5 2.24909V14C16.5 14.8284 15.8284 15.5 15 15.5H2C1.17157 15.5 0.5 14.8284 0.5 14V3.7785Z" stroke="white"/>
<path fill-rule="evenodd" clip-rule="evenodd" d="M2 4C0.895431 4 0 4.89543 0 6V14C0 15.1046 0.89543 16 2 16H16C17.1046 16 18 15.1046 18 14V6C18 4.89543 17.1046 4 16 4H2ZM15 11C15.5523 11 16 10.5523 16 10C16 9.44772 15.5523 9 15 9C14.4477 9 14 9.44772 14 10C14 10.5523 14.4477 11 15 11Z" fill="white"/>
</svg>
